Alegreya Sans-ExtraBold.ufo
<glyph name="quotedbl" format="1">
  <advance width="391"/>
  <unicode hex="0022"/>
  <outline>
    <contour>
      <point x="54" y="636" type="line"/>
      <point x="59" y="395" type="line"/>
      <point x="72" y="385" type="line"/>
      <point x="145" y="396" type="line"/>
      <point x="185" y="633" type="line"/>
      <point x="176" y="644" type="line"/>
    </contour>
    <contour>
      <point x="222" y="636" type="line"/>
      <point x="227" y="395" type="line"/>
      <point x="240" y="385" type="line"/>
      <point x="313" y="396" type="line"/>
      <point x="353" y="633" type="line"/>
      <point x="344" y="644" type="line"/>
    </contour>
  </outline>
</glyph>
<glyph name="dollar" format="1">
  <advance width="458"/>
  <unicode hex="0024"/>
  <outline>
    <contour>
      <point x="166" y="72" type="line"/>
      <point x="154" y="-126" type="line"/>
      <point x="166" y="-138" type="line"/>
      <point x="258" y="-138" type="line"/>
      <point x="271" y="72" type="line"/>
    </contour>
    <contour>
      <point x="201" y="646" type="line"/>
      <point x="189" y="438" type="line"/>
      <point x="294" y="438" type="line"/>
      <point x="305" y="633" type="line"/>
      <point x="291" y="646" type="line"/>
    </contour>
    <contour>
      <point x="124" y="517"/>
      <point x="46" y="442"/>
      <point x="46" y="347" type="curve" smooth="yes"/>
      <point x="46" y="185"/>
      <point x="268" y="199"/>
      <point x="268" y="133" type="curve" smooth="yes"/>
      <point x="268" y="113"/>
      <point x="250" y="98"/>
      <point x="221" y="98" type="curve" smooth="yes"/>
      <point x="180" y="98"/>
      <point x="116" y="124"/>
      <point x="68" y="166" type="curve"/>
      <point x="53" y="155" type="line"/>
      <point x="32" y="20" type="line"/>
      <point x="93" y="-2"/>
      <point x="156" y="-10"/>
      <point x="202" y="-10" type="curve" smooth="yes"/>
      <point x="354" y="-10"/>
      <point x="416" y="76"/>
      <point x="416" y="161" type="curve" smooth="yes"/>
      <point x="416" y="321"/>
      <point x="195" y="306"/>
      <point x="195" y="372" type="curve" smooth="yes"/>
      <point x="195" y="390"/>
      <point x="210" y="405"/>
      <point x="239" y="405" type="curve" smooth="yes"/>
      <point x="268" y="405"/>
      <point x="316" y="388"/>
      <point x="361" y="356" type="curve"/>
      <point x="383" y="361" type="line"/>
      <point x="405" y="491" type="line"/>
      <point x="363" y="506"/>
      <point x="310" y="517"/>
      <point x="259" y="517" type="curve" smooth="yes"/>
    </contour>
    <contour>
      <point x="238" y="508" type="move" name="top"/>
    </contour>
    <contour>
      <point x="208" y="0" type="move" name="bottom"/>
    </contour>
  </outline>
</glyph>
<glyph name="percent" format="1">
  <advance width="868"/>
  <unicode hex="0025"/>
  <outline>
    <contour>
      <point x="160" y="516" type="move"/>
    </contour>
    <component base="zero.numr" yOffset="55.667" yScale="0.92"/>
    <component base="fraction" xOffset="375"/>
    <component base="zero.dnom" xOffset="493" yScale="0.92"/>
  </outline>
</glyph>
<glyph name="ampersand" format="1">
  <advance width="719"/>
  <unicode hex="0026"/>
  <outline>
    <contour>
      <point x="161" y="652"/>
      <point x="84" y="587"/>
      <point x="84" y="488" type="curve" smooth="yes"/>
      <point x="84" y="426"/>
      <point x="114" y="373"/>
      <point x="178" y="315" type="curve" smooth="yes"/>
      <point x="593" y="-60" type="line"/>
      <point x="603" y="-61" type="line"/>
      <point x="636" y="-41"/>
      <point x="664" y="-18"/>
      <point x="688" y="10" type="curve"/>
      <point x="688" y="20" type="line"/>
      <point x="274" y="395" type="line" smooth="yes"/>
      <point x="233" y="431"/>
      <point x="222" y="451"/>
      <point x="222" y="479" type="curve" smooth="yes"/>
      <point x="222" y="520"/>
      <point x="247" y="543"/>
      <point x="297" y="543" type="curve"/>
      <point x="335" y="543"/>
      <point x="373" y="531"/>
      <point x="413" y="508" type="curve"/>
      <point x="432" y="508" type="line"/>
      <point x="468" y="625" type="line"/>
      <point x="418" y="643"/>
      <point x="361" y="652"/>
      <point x="302" y="652" type="curve"/>
    </contour>
    <contour>
      <point x="703" y="340" type="line"/>
      <point x="714" y="440" type="line"/>
      <point x="704" y="451" type="line"/>
      <point x="414" y="451" type="line"/>
      <point x="403" y="349" type="line"/>
      <point x="410" y="340" type="line"/>
      <point x="467" y="340" type="line"/>
      <point x="475" y="320"/>
      <point x="478" y="297"/>
      <point x="478" y="273" type="curve" smooth="yes"/>
      <point x="478" y="170"/>
      <point x="413" y="99"/>
      <point x="297" y="99" type="curve" smooth="yes"/>
      <point x="216" y="99"/>
      <point x="169" y="134"/>
      <point x="169" y="200" type="curve" smooth="yes"/>
      <point x="169" y="235"/>
      <point x="186" y="265"/>
      <point x="216" y="288" type="curve"/>
      <point x="149" y="388" type="line"/>
      <point x="146" y="337" type="line"/>
      <point x="75" y="303"/>
      <point x="33" y="251"/>
      <point x="33" y="174" type="curve" smooth="yes"/>
      <point x="33" y="60"/>
      <point x="129" y="-10"/>
      <point x="282" y="-10" type="curve" smooth="yes"/>
      <point x="469" y="-10"/>
      <point x="582" y="95"/>
      <point x="582" y="254" type="curve" smooth="yes"/>
      <point x="582" y="278"/>
      <point x="579" y="304"/>
      <point x="573" y="330" type="curve"/>
      <point x="577" y="340" type="line"/>
    </contour>
  </outline>
</glyph>
<glyph name="quotesingle" format="1">
  <advance width="223"/>
  <unicode hex="0027"/>
  <outline>
    <contour>
      <point x="54" y="636" type="line"/>
      <point x="59" y="395" type="line"/>
      <point x="72" y="385" type="line"/>
      <point x="145" y="396" type="line"/>
      <point x="185" y="633" type="line"/>
      <point x="176" y="644" type="line"/>
    </contour>
  </outline>
</glyph>
<glyph name="parenleft" format="1">
  <advance width="298"/>
  <unicode hex="0028"/>
  <outline>
    <contour>
      <point x="224" y="660" type="line"/>
      <point x="113" y="578"/>
      <point x="64" y="454"/>
      <point x="64" y="252" type="curve" smooth="yes"/>
      <point x="64" y="62"/>
      <point x="113" y="-57"/>
      <point x="224" y="-138" type="curve"/>
      <point x="238" y="-138" type="line"/>
      <point x="294" y="-91" type="line"/>
      <point x="294" y="-78" type="line"/>
      <point x="222" y="-9"/>
      <point x="191" y="91"/>
      <point x="191" y="253" type="curve" smooth="yes"/>
      <point x="191" y="425"/>
      <point x="222" y="530"/>
      <point x="294" y="600" type="curve"/>
      <point x="294" y="613" type="line"/>
      <point x="238" y="660" type="line"/>
    </contour>
  </outline>
</glyph>
<glyph name="comma" format="1">
  <advance width="228"/>
  <unicode hex="002C"/>
  <outline>
    <contour>
      <point x="109" y="142"/>
      <point x="71" y="125"/>
      <point x="35" y="105" type="curve"/>
      <point x="34" y="91" type="line"/>
      <point x="56" y="71"/>
      <point x="67" y="51"/>
      <point x="67" y="25" type="curve" smooth="yes"/>
      <point x="67" y="-13"/>
      <point x="48" y="-46"/>
      <point x="11" y="-77" type="curve"/>
      <point x="12" y="-89" type="line"/>
      <point x="63" y="-133" type="line"/>
      <point x="154" y="-69"/>
      <point x="196" y="-8"/>
      <point x="196" y="59" type="curve" smooth="yes"/>
      <point x="196" y="96"/>
      <point x="181" y="126"/>
      <point x="150" y="153" type="curve"/>
    </contour>
  </outline>
</glyph>
<glyph name="one" format="1">
  <advance width="368"/>
  <unicode hex="0031"/>
  <outline>
    <contour>
      <point x="7" y="445" type="line"/>
      <point x="7" y="317" type="line"/>
      <point x="18" y="309" type="line"/>
      <point x="123" y="335" type="line"/>
      <point x="123" y="192" type="line"/>
      <point x="116" y="0" type="line"/>
      <point x="277" y="0" type="line"/>
      <point x="270" y="209" type="line"/>
      <point x="278" y="499" type="line"/>
      <point x="255" y="516" type="line"/>
    </contour>
  </outline>
</glyph>
<glyph name="three" format="1">
  <advance width="440"/>
  <unicode hex="0033"/>
  <outline>
    <contour>
      <point x="146" y="517"/>
      <point x="79" y="497"/>
      <point x="20" y="460" type="curve"/>
      <point x="43" y="348" type="line"/>
      <point x="59" y="348" type="line"/>
      <point x="102" y="373"/>
      <point x="138" y="389"/>
      <point x="174" y="389" type="curve" smooth="yes"/>
      <point x="212" y="389"/>
      <point x="233" y="372"/>
      <point x="233" y="341" type="curve" smooth="yes"/>
      <point x="233" y="298"/>
      <point x="191" y="272"/>
      <point x="146" y="271" type="curve" smooth="yes"/>
      <point x="102" y="269" type="line"/>
      <point x="98" y="160" type="line"/>
      <point x="105" y="150" type="line"/>
      <point x="181" y="150" type="line"/>
      <point x="229" y="149"/>
      <point x="253" y="130"/>
      <point x="253" y="95" type="curve" smooth="yes"/>
      <point x="253" y="50"/>
      <point x="216" y="26"/>
      <point x="148" y="26" type="curve" smooth="yes"/>
      <point x="111" y="26"/>
      <point x="74" y="33"/>
      <point x="33" y="46" type="curve"/>
      <point x="22" y="36" type="line"/>
      <point x="31" y="-84" type="line"/>
      <point x="65" y="-90"/>
      <point x="107" y="-94"/>
      <point x="143" y="-94" type="curve" smooth="yes"/>
      <point x="300" y="-94"/>
      <point x="405" y="-19"/>
      <point x="405" y="94" type="curve" smooth="yes"/>
      <point x="405" y="162"/>
      <point x="371" y="206"/>
      <point x="302" y="227" type="curve"/>
      <point x="302" y="233" type="line"/>
      <point x="373" y="272"/>
      <point x="395" y="330"/>
      <point x="395" y="375" type="curve" smooth="yes"/>
      <point x="395" y="460"/>
      <point x="321" y="517"/>
      <point x="210" y="517" type="curve" smooth="yes"/>
    </contour>
  </outline>
</glyph>
<glyph name="six" format="1">
  <advance width="489"/>
  <unicode hex="0036"/>
  <outline>
    <contour>
      <point x="315" y="597" type="line"/>
      <point x="133" y="513"/>
      <point x="27" y="377"/>
      <point x="27" y="217" type="curve" smooth="yes"/>
      <point x="27" y="76"/>
      <point x="105" y="-11"/>
      <point x="241" y="-11" type="curve" smooth="yes"/>
      <point x="389" y="-11"/>
      <point x="461" y="88"/>
      <point x="461" y="190" type="curve" smooth="yes"/>
      <point x="461" y="284"/>
      <point x="401" y="367"/>
      <point x="292" y="367" type="curve" smooth="yes"/>
      <point x="261" y="367"/>
      <point x="231" y="359"/>
      <point x="205" y="347" type="curve"/>
      <point x="177" y="379" type="line"/>
      <point x="156" y="227" type="line"/>
      <point x="186" y="246"/>
      <point x="216" y="257"/>
      <point x="244" y="257" type="curve" smooth="yes"/>
      <point x="294" y="257"/>
      <point x="318" y="228"/>
      <point x="318" y="173" type="curve" smooth="yes"/>
      <point x="318" y="120"/>
      <point x="292" y="92"/>
      <point x="246" y="92" type="curve" smooth="yes"/>
      <point x="186" y="92"/>
      <point x="171" y="137"/>
      <point x="171" y="219" type="curve" smooth="yes"/>
      <point x="171" y="373"/>
      <point x="231" y="436"/>
      <point x="428" y="511" type="curve"/>
      <point x="428" y="527" type="line"/>
      <point x="323" y="597" type="line"/>
    </contour>
  </outline>
</glyph>
<glyph name="at" format="1">
  <advance width="853"/>
  <unicode hex="0040"/>
  <outline>
    <contour>
      <point x="204" y="645"/>
      <point x="24" y="446"/>
      <point x="24" y="184" type="curve" smooth="yes"/>
      <point x="24" y="-72"/>
      <point x="203" y="-215"/>
      <point x="472" y="-216" type="curve"/>
      <point x="514" y="-143" type="line"/>
      <point x="508" y="-129" type="line"/>
      <point x="280" y="-129"/>
      <point x="128" y="-8"/>
      <point x="128" y="202" type="curve" smooth="yes"/>
      <point x="128" y="397"/>
      <point x="260" y="541"/>
      <point x="461" y="547" type="curve" smooth="yes"/>
      <point x="628" y="552"/>
      <point x="733" y="459"/>
      <point x="733" y="313" type="curve" smooth="yes"/>
      <point x="733" y="192"/>
      <point x="663" y="107"/>
      <point x="550" y="105" type="curve"/>
      <point x="442" y="-2.22045e-16" type="line"/>
      <point x="694" y="3"/>
      <point x="836" y="115"/>
      <point x="836" y="318" type="curve" smooth="yes"/>
      <point x="836" y="521"/>
      <point x="694" y="645"/>
      <point x="480" y="645" type="curve" smooth="yes"/>
    </contour>
    <contour>
      <point x="495" y="431" type="line"/>
      <point x="489" y="342" type="line"/>
      <point x="442" y="-2.22045e-16" type="line"/>
      <point x="581" y="33" type="line"/>
      <point x="584" y="113" type="line"/>
      <point x="631" y="456" type="line"/>
      <point x="620" y="463" type="line"/>
    </contour>
    <contour>
      <point x="401" y="222" type="move"/>
    </contour>
    <contour>
      <point x="288" y="415"/>
      <point x="216" y="275"/>
      <point x="216" y="153" type="curve" smooth="yes"/>
      <point x="216" y="75"/>
      <point x="243" y="21"/>
      <point x="329" y="-6" type="curve"/>
      <point x="349" y="-6" type="line"/>
      <point x="387" y="35"/>
      <point x="419" y="84"/>
      <point x="448" y="135" type="curve"/>
      <point x="467" y="135" type="line"/>
      <point x="496" y="343" type="line"/>
      <point x="438" y="196"/>
      <point x="389" y="127"/>
      <point x="367" y="127" type="curve" smooth="yes"/>
      <point x="354" y="127"/>
      <point x="344" y="147"/>
      <point x="344" y="207" type="curve" smooth="yes"/>
      <point x="344" y="297"/>
      <point x="372" y="356"/>
      <point x="424" y="356" type="curve"/>
      <point x="529" y="325" type="line"/>
      <point x="600" y="428" type="line"/>
      <point x="453" y="459" type="line"/>
      <point x="447" y="459" type="line"/>
    </contour>
  </outline>
</glyph>
<glyph name="C" format="1">
  <advance width="516"/>
  <unicode hex="0043"/>
  <outline>
    <contour>
      <point x="140" y="654"/>
      <point x="24" y="531"/>
      <point x="24" y="317" type="curve" smooth="yes"/>
      <point x="24" y="106"/>
      <point x="129" y="-10"/>
      <point x="331" y="-10" type="curve" smooth="yes"/>
      <point x="382" y="-10"/>
      <point x="432" y="-2"/>
      <point x="482" y="18" type="curve"/>
      <point x="495" y="151" type="line"/>
      <point x="481" y="159" type="line"/>
      <point x="442" y="138"/>
      <point x="388" y="125"/>
      <point x="344" y="125" type="curve" smooth="yes"/>
      <point x="245" y="125"/>
      <point x="195" y="193"/>
      <point x="195" y="335" type="curve" smooth="yes"/>
      <point x="195" y="465"/>
      <point x="242" y="522"/>
      <point x="336" y="522" type="curve" smooth="yes"/>
      <point x="382" y="522"/>
      <point x="432" y="507"/>
      <point x="469" y="482" type="curve"/>
      <point x="481" y="488" type="line"/>
      <point x="509" y="621" type="line"/>
      <point x="461" y="642"/>
      <point x="405" y="654"/>
      <point x="343" y="654" type="curve" smooth="yes"/>
    </contour>
    <contour>
      <point x="315" y="0" type="move" name="bottom"/>
    </contour>
    <contour>
      <point x="316" y="645" type="move" name="top"/>
    </contour>
  </outline>
</glyph>
<glyph name="E" format="1">
  <advance width="522"/>
  <unicode hex="0045"/>
  <outline>
    <contour>
      <point x="70" y="645" type="line"/>
      <point x="79" y="191" type="line"/>
      <point x="70" y="0" type="line"/>
      <point x="233" y="0" type="line"/>
      <point x="226" y="207" type="line"/>
      <point x="235" y="645" type="line"/>
    </contour>
    <contour>
      <point x="335" y="126" type="line"/>
      <point x="179" y="127" type="line"/>
      <point x="178" y="10" type="line"/>
      <point x="179" y="0" type="line"/>
      <point x="496" y="0" type="line"/>
      <point x="506" y="120" type="line"/>
      <point x="497" y="132" type="line"/>
    </contour>
    <contour>
      <point x="336" y="389" type="line"/>
      <point x="187" y="389" type="line"/>
      <point x="186" y="272" type="line"/>
      <point x="187" y="263" type="line"/>
      <point x="325" y="263" type="line"/>
      <point x="440" y="260" type="line"/>
      <point x="450" y="380" type="line"/>
      <point x="441" y="392" type="line"/>
    </contour>
    <contour>
      <point x="179" y="645" type="line"/>
      <point x="178" y="528" type="line"/>
      <point x="179" y="518" type="line"/>
      <point x="343" y="519" type="line"/>
      <point x="499" y="513" type="line"/>
      <point x="510" y="633" type="line"/>
      <point x="501" y="645" type="line"/>
    </contour>
    <contour>
      <point x="300" y="0" type="move" name="bottom"/>
    </contour>
    <contour>
      <point x="513" y="10" type="move" name="ogonek"/>
    </contour>
    <contour>
      <point x="286" y="645" type="move" name="top"/>
    </contour>
  </outline>
</glyph>
<glyph name="J" format="1">
  <advance width="346"/>
  <unicode hex="004A"/>
  <outline>
    <contour>
      <point x="112" y="645" type="line"/>
      <point x="120" y="197" type="line"/>
      <point x="120" y="126" type="line"/>
      <point x="120" y="62"/>
      <point x="92" y="28"/>
      <point x="16" y="-10" type="curve"/>
      <point x="16" y="-24" type="line"/>
      <point x="62" y="-109" type="line"/>
      <point x="218" y="-55"/>
      <point x="270" y="6"/>
      <point x="270" y="122" type="curve"/>
      <point x="268" y="213" type="line"/>
      <point x="277" y="645" type="line"/>
    </contour>
    <contour>
      <point x="14" y="645" type="line"/>
      <point x="7" y="537" type="line"/>
      <point x="17" y="526" type="line"/>
      <point x="133" y="529" type="line"/>
      <point x="132" y="645" type="line"/>
    </contour>
    <contour>
      <point x="154" y="645" type="move" name="top"/>
    </contour>
  </outline>
</glyph>
<glyph name="N" format="1">
  <advance width="701"/>
  <unicode hex="004E"/>
  <outline>
    <contour>
      <point x="481" y="639" type="line"/>
      <point x="486" y="246" type="line"/>
      <point x="475" y="246" type="line"/>
      <point x="246" y="645" type="line"/>
      <point x="71" y="645" type="line"/>
      <point x="79" y="190" type="line"/>
      <point x="70" y="0" type="line"/>
      <point x="218" y="0" type="line"/>
      <point x="212" y="227" type="line"/>
      <point x="213" y="399" type="line"/>
      <point x="223" y="399" type="line"/>
      <point x="452" y="0" type="line"/>
      <point x="628" y="0" type="line"/>
      <point x="621" y="204" type="line"/>
      <point x="631" y="648" type="line"/>
    </contour>
    <contour>
      <point x="350" y="0" type="move" name="bottom"/>
    </contour>
    <contour>
      <point x="350" y="645" type="move" name="top"/>
    </contour>
  </outline>
</glyph>
<glyph name="Q" format="1">
  <advance width="654"/>
  <unicode hex="0051"/>
  <outline>
    <contour>
      <point x="137" y="655"/>
      <point x="24" y="532"/>
      <point x="24" y="313" type="curve" smooth="yes"/>
      <point x="24" y="107"/>
      <point x="128" y="-11"/>
      <point x="312" y="-11" type="curve" smooth="yes"/>
      <point x="511" y="-11"/>
      <point x="624" y="116"/>
      <point x="624" y="337" type="curve" smooth="yes"/>
      <point x="624" y="541"/>
      <point x="520" y="655"/>
      <point x="337" y="655" type="curve" smooth="yes"/>
    </contour>
    <contour>
      <point x="310" y="7" type="line"/>
      <point x="410" y="-82"/>
      <point x="525" y="-153"/>
      <point x="649" y="-206" type="curve"/>
      <point x="661" y="-200" type="line"/>
      <point x="694" y="-171"/>
      <point x="717" y="-138"/>
      <point x="738" y="-97" type="curve"/>
      <point x="732" y="-81" type="line"/>
      <point x="620" y="-51"/>
      <point x="517" y="-3"/>
      <point x="421" y="59" type="curve"/>
    </contour>
    <contour>
      <point x="418" y="525"/>
      <point x="454" y="470"/>
      <point x="454" y="305" type="curve" smooth="yes"/>
      <point x="454" y="162"/>
      <point x="418" y="112"/>
      <point x="326" y="112" type="curve" smooth="yes"/>
      <point x="229" y="112"/>
      <point x="193" y="167"/>
      <point x="193" y="333" type="curve" smooth="yes"/>
      <point x="193" y="476"/>
      <point x="228" y="525"/>
      <point x="321" y="525" type="curve" smooth="yes"/>
    </contour>
  </outline>
</glyph>
<glyph name="V" format="1">
  <advance width="599"/>
  <unicode hex="0056"/>
  <outline>
    <contour>
      <point x="440" y="645" type="line"/>
      <point x="422" y="542" type="line"/>
      <point x="302" y="148" type="line"/>
      <point x="292" y="148" type="line"/>
      <point x="189" y="551" type="line"/>
      <point x="172" y="645" type="line"/>
      <point x="7" y="645" type="line"/>
      <point x="196" y="0" type="line"/>
      <point x="391" y="0" type="line"/>
      <point x="599" y="645" type="line"/>
    </contour>
  </outline>
</glyph>
<glyph name="underscore" format="1">
  <advance width="442"/>
  <unicode hex="005F"/>
  <outline>
    <contour>
      <point x="-7" y="-90" type="line"/>
      <point x="-15" y="-178" type="line"/>
      <point x="-5" y="-189" type="line"/>
      <point x="449" y="-189" type="line"/>
      <point x="457" y="-101" type="line"/>
      <point x="447" y="-90" type="line"/>
    </contour>
  </outline>
</glyph>
<glyph name="b" format="1">
  <advance width="527"/>
  <unicode hex="0062"/>
  <outline>
    <contour>
      <point x="280" y="458"/>
      <point x="248" y="435"/>
      <point x="214" y="401" type="curve"/>
      <point x="193" y="401" type="line"/>
      <point x="193" y="306" type="line"/>
      <point x="223" y="336"/>
      <point x="248" y="348"/>
      <point x="274" y="348" type="curve" smooth="yes"/>
      <point x="329" y="348"/>
      <point x="354" y="304"/>
      <point x="355" y="223" type="curve" smooth="yes"/>
      <point x="356" y="126"/>
      <point x="319" y="90"/>
      <point x="263" y="90" type="curve" smooth="yes"/>
      <point x="217" y="90"/>
      <point x="152" y="121"/>
      <point x="86" y="187" type="curve"/>
      <point x="85" y="42" type="line"/>
      <point x="145" y="9"/>
      <point x="210" y="-11"/>
      <point x="268" y="-11" type="curve"/>
      <point x="412" y="-11"/>
      <point x="504" y="79"/>
      <point x="504" y="247" type="curve" smooth="yes"/>
      <point x="504" y="388"/>
      <point x="438" y="474"/>
      <point x="320" y="474" type="curve"/>
    </contour>
    <contour>
      <point x="57" y="691" type="line"/>
      <point x="64" y="191" type="line"/>
      <point x="56" y="3" type="line"/>
      <point x="72" y="-12" type="line"/>
      <point x="209" y="33" type="line"/>
      <point x="207" y="211" type="line"/>
      <point x="215" y="702" type="line"/>
    </contour>
  </outline>
</glyph>
<glyph name="c" format="1">
  <advance width="384"/>
  <unicode hex="0063"/>
  <outline>
    <contour>
      <point x="109" y="478"/>
      <point x="23" y="385"/>
      <point x="23" y="227" type="curve" smooth="yes"/>
      <point x="23" y="77"/>
      <point x="99" y="-11"/>
      <point x="230" y="-11" type="curve" smooth="yes"/>
      <point x="272" y="-11"/>
      <point x="315" y="-5"/>
      <point x="354" y="6" type="curve"/>
      <point x="370" y="125" type="line"/>
      <point x="358" y="134" type="line"/>
      <point x="323" y="121"/>
      <point x="293" y="113"/>
      <point x="265" y="113" type="curve" smooth="yes"/>
      <point x="205" y="113"/>
      <point x="174" y="157"/>
      <point x="174" y="243" type="curve" smooth="yes"/>
      <point x="174" y="313"/>
      <point x="202" y="350"/>
      <point x="255" y="350" type="curve" smooth="yes"/>
      <point x="282" y="350"/>
      <point x="308" y="340"/>
      <point x="340" y="325" type="curve"/>
      <point x="352" y="330" type="line"/>
      <point x="378" y="454" type="line"/>
      <point x="344" y="469"/>
      <point x="299" y="478"/>
      <point x="255" y="478" type="curve" smooth="yes"/>
    </contour>
    <contour>
      <point x="222" y="0" type="move" name="bottom"/>
    </contour>
    <contour>
      <point x="241" y="468" type="move" name="top"/>
    </contour>
  </outline>
</glyph>
<glyph name="d" format="1">
  <advance width="529"/>
  <unicode hex="0064"/>
  <outline>
    <contour>
      <point x="312" y="691" type="line"/>
      <point x="314" y="471" type="line"/>
      <point x="295" y="475"/>
      <point x="276" y="476"/>
      <point x="261" y="476" type="curve" smooth="yes"/>
      <point x="115" y="476"/>
      <point x="22" y="392"/>
      <point x="22" y="229" type="curve" smooth="yes"/>
      <point x="22" y="83"/>
      <point x="96" y="-8"/>
      <point x="227" y="-8" type="curve"/>
      <point x="263" y="10"/>
      <point x="293" y="30"/>
      <point x="324" y="61" type="curve"/>
      <point x="332" y="61" type="line"/>
      <point x="346" y="19"/>
      <point x="377" y="-5"/>
      <point x="419" y="-9" type="curve"/>
      <point x="453" y="-6"/>
      <point x="478" y="3"/>
      <point x="500" y="18" type="curve"/>
      <point x="514" y="101" type="line"/>
      <point x="503" y="110" type="line"/>
      <point x="493" y="107"/>
      <point x="487" y="106"/>
      <point x="481" y="106" type="curve" smooth="yes"/>
      <point x="467" y="106"/>
      <point x="463" y="114"/>
      <point x="463" y="133" type="curve" smooth="yes"/>
      <point x="461" y="207" type="line"/>
      <point x="469" y="702" type="line"/>
    </contour>
    <contour>
      <point x="274" y="370"/>
      <point x="294" y="365"/>
      <point x="316" y="355" type="curve"/>
      <point x="319" y="192" type="line"/>
      <point x="317" y="145" type="line"/>
      <point x="295" y="121"/>
      <point x="273" y="112"/>
      <point x="250" y="112" type="curve" smooth="yes"/>
      <point x="199" y="112"/>
      <point x="171" y="157"/>
      <point x="171" y="256" type="curve" smooth="yes"/>
      <point x="170" y="339"/>
      <point x="199" y="370"/>
      <point x="254" y="370" type="curve" smooth="yes"/>
    </contour>
    <contour>
      <point x="264" y="234" type="move" name="center"/>
    </contour>
  </outline>
</glyph>
<glyph name="e" format="1">
  <advance width="480"/>
  <unicode hex="0065"/>
  <outline>
    <contour>
      <point x="115" y="477"/>
      <point x="23" y="386"/>
      <point x="23" y="233" type="curve" smooth="yes"/>
      <point x="23" y="80"/>
      <point x="113" y="-11"/>
      <point x="269" y="-11" type="curve" smooth="yes"/>
      <point x="319" y="-11"/>
      <point x="367" y="-1"/>
      <point x="410" y="15" type="curve"/>
      <point x="433" y="127" type="line"/>
      <point x="420" y="136" type="line"/>
      <point x="372" y="115"/>
      <point x="325" y="105"/>
      <point x="286" y="105" type="curve" smooth="yes"/>
      <point x="200" y="105"/>
      <point x="166" y="149"/>
      <point x="166" y="240" type="curve" smooth="yes"/>
      <point x="166" y="327"/>
      <point x="199" y="375"/>
      <point x="256" y="375" type="curve" smooth="yes"/>
      <point x="295" y="375"/>
      <point x="316" y="352"/>
      <point x="316" y="306" type="curve"/>
      <point x="314" y="293" type="line"/>
      <point x="148" y="286" type="line"/>
      <point x="148" y="207" type="line"/>
      <point x="427" y="208" type="line"/>
      <point x="447" y="230" type="line"/>
      <point x="450" y="244"/>
      <point x="452" y="269"/>
      <point x="452" y="289" type="curve" smooth="yes"/>
      <point x="452" y="406"/>
      <point x="384" y="477"/>
      <point x="260" y="477" type="curve" smooth="yes"/>
    </contour>
    <contour>
      <point x="181" y="0" type="move" name="bottom"/>
    </contour>
    <contour>
      <point x="434" y="10" type="move" name="ogonek"/>
    </contour>
    <contour>
      <point x="250" y="467" type="move" name="top"/>
    </contour>
  </outline>
</glyph>
<glyph name="f" format="1">
  <advance width="342"/>
  <unicode hex="0066"/>
  <outline>
    <contour>
      <point x="177" y="704"/>
      <point x="95" y="634"/>
      <point x="95" y="506" type="curve"/>
      <point x="99" y="192" type="line"/>
      <point x="91" y="0" type="line"/>
      <point x="249" y="0" type="line"/>
      <point x="242" y="207" type="line"/>
      <point x="248" y="534" type="line"/>
      <point x="249" y="577"/>
      <point x="269" y="593"/>
      <point x="302" y="593" type="curve" smooth="yes"/>
      <point x="325" y="593"/>
      <point x="351" y="587"/>
      <point x="389" y="571" type="curve"/>
      <point x="400" y="579" type="line"/>
      <point x="409" y="695" type="line"/>
      <point x="378" y="701"/>
      <point x="348" y="704"/>
      <point x="319" y="704" type="curve" smooth="yes"/>
    </contour>
    <contour>
      <point x="29" y="464" type="line"/>
      <point x="22" y="378" type="line"/>
      <point x="27" y="370" type="line"/>
      <point x="354" y="370" type="line"/>
      <point x="361" y="455" type="line"/>
      <point x="357" y="464" type="line"/>
    </contour>
  </outline>
</glyph>
<glyph name="g" format="1">
  <advance width="507"/>
  <unicode hex="0067"/>
  <outline>
    <contour>
      <point x="123" y="172" type="line"/>
      <point x="96" y="155"/>
      <point x="72" y="134"/>
      <point x="51" y="111" type="curve"/>
      <point x="50" y="-54"/>
      <point x="344" y="30"/>
      <point x="344" y="-55" type="curve" smooth="yes"/>
      <point x="344" y="-92"/>
      <point x="308" y="-108"/>
      <point x="255" y="-108" type="curve" smooth="yes"/>
      <point x="195" y="-108"/>
      <point x="167" y="-87"/>
      <point x="167" y="-54" type="curve" smooth="yes"/>
      <point x="167" y="-34"/>
      <point x="180" y="-17"/>
      <point x="205" y="1" type="curve"/>
      <point x="122" y="25" type="line"/>
      <point x="122" y="10" type="line"/>
      <point x="91" y="-9"/>
      <point x="63" y="-32"/>
      <point x="41" y="-60" type="curve"/>
      <point x="41" y="-141"/>
      <point x="109" y="-196"/>
      <point x="240" y="-196" type="curve" smooth="yes"/>
      <point x="380" y="-196"/>
      <point x="475" y="-126"/>
      <point x="475" y="-27" type="curve" smooth="yes"/>
      <point x="475" y="145"/>
      <point x="180" y="72"/>
      <point x="180" y="137" type="curve" smooth="yes"/>
      <point x="180" y="144"/>
      <point x="183" y="151"/>
      <point x="195" y="162" type="curve"/>
      <point x="123" y="186" type="line"/>
    </contour>
    <contour>
      <point x="301" y="380"/>
      <point x="323" y="361"/>
      <point x="323" y="315" type="curve" smooth="yes"/>
      <point x="323" y="268"/>
      <point x="299" y="245"/>
      <point x="250" y="245" type="curve" smooth="yes"/>
      <point x="204" y="245"/>
      <point x="182" y="268"/>
      <point x="182" y="316" type="curve" smooth="yes"/>
      <point x="182" y="360"/>
      <point x="204" y="380"/>
      <point x="255" y="380" type="curve" smooth="yes"/>
    </contour>
    <contour>
      <point x="127" y="476"/>
      <point x="46" y="413"/>
      <point x="46" y="308" type="curve" smooth="yes"/>
      <point x="46" y="209"/>
      <point x="118" y="153"/>
      <point x="246" y="153" type="curve" smooth="yes"/>
      <point x="377" y="153"/>
      <point x="458" y="218"/>
      <point x="458" y="319" type="curve" smooth="yes"/>
      <point x="458" y="412"/>
      <point x="378" y="476"/>
      <point x="257" y="476" type="curve" smooth="yes"/>
    </contour>
    <contour>
      <point x="456" y="480"/>
      <point x="399" y="463"/>
      <point x="343" y="453" type="curve"/>
      <point x="437" y="359" type="line"/>
      <point x="448" y="383" type="line"/>
      <point x="472" y="385"/>
      <point x="494" y="388"/>
      <point x="519" y="394" type="curve"/>
      <point x="519" y="491" type="line"/>
      <point x="508" y="500" type="line"/>
    </contour>
    <contour>
      <point x="257" y="460" type="move" name="top"/>
    </contour>
  </outline>
</glyph>
<glyph name="h" format="1">
  <advance width="536"/>
  <unicode hex="0068"/>
  <outline>
    <contour>
      <point x="290" y="459"/>
      <point x="252" y="435"/>
      <point x="216" y="401" type="curve"/>
      <point x="191" y="401" type="line"/>
      <point x="190" y="303" type="line"/>
      <point x="224" y="332"/>
      <point x="255" y="348"/>
      <point x="285" y="348" type="curve" smooth="yes"/>
      <point x="322" y="348"/>
      <point x="341" y="324"/>
      <point x="341" y="279" type="curve"/>
      <point x="332" y="0" type="line"/>
      <point x="491" y="0" type="line"/>
      <point x="485" y="207" type="line"/>
      <point x="488" y="341" type="line" smooth="yes"/>
      <point x="490" y="426"/>
      <point x="436" y="474"/>
      <point x="335" y="474" type="curve"/>
    </contour>
    <contour>
      <point x="274" y="194" type="move"/>
    </contour>
    <component base="l"/>
    <contour>
      <point x="268" y="234" type="move" name="center"/>
    </contour>
    <contour>
      <point x="133" y="656" type="move" name="top"/>
    </contour>
  </outline>
</glyph>
<glyph name="l" format="1">
  <advance width="271"/>
  <unicode hex="006C"/>
  <outline>
    <contour>
      <point x="58" y="691" type="line"/>
      <point x="64" y="192" type="line"/>
      <point x="56" y="0" type="line"/>
      <point x="214" y="0" type="line"/>
      <point x="207" y="207" type="line"/>
      <point x="215" y="702" type="line"/>
    </contour>
    <contour>
      <point x="135" y="0" type="move" name="bottom"/>
    </contour>
    <contour>
      <point x="135" y="680" type="move" name="top"/>
    </contour>
    <contour>
      <point x="251" y="468" type="move" name="topright"/>
    </contour>
  </outline>
</glyph>
<glyph name="m" format="1">
  <advance width="807"/>
  <unicode hex="006D"/>
  <outline>
    <contour>
      <point x="556" y="459"/>
      <point x="513" y="434"/>
      <point x="476" y="399" type="curve"/>
      <point x="455" y="399" type="line"/>
      <point x="458" y="303" type="line"/>
      <point x="492" y="333"/>
      <point x="523" y="349"/>
      <point x="554" y="349" type="curve" smooth="yes"/>
      <point x="592" y="349"/>
      <point x="611" y="325"/>
      <point x="610" y="280" type="curve"/>
      <point x="602" y="0" type="line"/>
      <point x="759" y="0" type="line"/>
      <point x="753" y="207" type="line"/>
      <point x="756" y="341" type="line" smooth="yes"/>
      <point x="758" y="426"/>
      <point x="704" y="474"/>
      <point x="604" y="474" type="curve"/>
    </contour>
    <contour>
      <point x="53" y="458" type="line"/>
      <point x="59" y="191" type="line"/>
      <point x="51" y="0" type="line"/>
      <point x="208" y="0" type="line"/>
      <point x="201" y="207" type="line"/>
      <point x="202" y="470" type="line"/>
    </contour>
    <contour>
      <point x="278" y="122" type="move"/>
    </contour>
    <contour>
      <point x="282" y="459"/>
      <point x="244" y="435"/>
      <point x="208" y="401" type="curve"/>
      <point x="183" y="401" type="line"/>
      <point x="182" y="303" type="line"/>
      <point x="217" y="333"/>
      <point x="247" y="349"/>
      <point x="277" y="349" type="curve" smooth="yes"/>
      <point x="316" y="349"/>
      <point x="335" y="325"/>
      <point x="334" y="280" type="curve"/>
      <point x="326" y="0" type="line"/>
      <point x="483" y="0" type="line"/>
      <point x="476" y="207" type="line"/>
      <point x="480" y="341" type="line" smooth="yes"/>
      <point x="481" y="426"/>
      <point x="428" y="474"/>
      <point x="327" y="474" type="curve"/>
    </contour>
  </outline>
</glyph>
<glyph name="q" format="1">
  <advance width="519"/>
  <unicode hex="0071"/>
  <outline>
    <contour>
      <point x="334" y="466"/>
      <point x="299" y="476"/>
      <point x="253" y="476" type="curve" smooth="yes"/>
      <point x="119" y="476"/>
      <point x="22" y="392"/>
      <point x="22" y="227" type="curve" smooth="yes"/>
      <point x="22" y="83"/>
      <point x="95" y="-8"/>
      <point x="225" y="-8" type="curve"/>
      <point x="258" y="7"/>
      <point x="283" y="24"/>
      <point x="310" y="48" type="curve"/>
      <point x="318" y="48" type="line"/>
      <point x="318" y="20" type="line"/>
      <point x="310" y="-185" type="line"/>
      <point x="468" y="-185" type="line"/>
      <point x="461" y="207" type="line"/>
      <point x="469" y="470" type="line"/>
      <point x="456" y="478" type="line"/>
      <point x="373" y="452" type="line"/>
    </contour>
    <contour>
      <point x="275" y="370"/>
      <point x="293" y="365"/>
      <point x="316" y="354" type="curve"/>
      <point x="319" y="190" type="line"/>
      <point x="318" y="145" type="line"/>
      <point x="294" y="121"/>
      <point x="272" y="112"/>
      <point x="249" y="112" type="curve" smooth="yes"/>
      <point x="199" y="112"/>
      <point x="171" y="158"/>
      <point x="171" y="250" type="curve" smooth="yes"/>
      <point x="170" y="338"/>
      <point x="197" y="370"/>
      <point x="253" y="370" type="curve" smooth="yes"/>
    </contour>
  </outline>
</glyph>
<glyph name="s" format="1">
  <advance width="392"/>
  <unicode hex="0073"/>
  <outline>
    <contour>
      <point x="100" y="477"/>
      <point x="29" y="410"/>
      <point x="29" y="321" type="curve" smooth="yes"/>
      <point x="29" y="171"/>
      <point x="236" y="189"/>
      <point x="236" y="123" type="curve" smooth="yes"/>
      <point x="236" y="104"/>
      <point x="221" y="88"/>
      <point x="191" y="88" type="curve" smooth="yes"/>
      <point x="154" y="88"/>
      <point x="94" y="109"/>
      <point x="48" y="147" type="curve"/>
      <point x="34" y="137" type="line"/>
      <point x="15" y="17" type="line"/>
      <point x="71" y="-2"/>
      <point x="127" y="-11"/>
      <point x="172" y="-11" type="curve" smooth="yes"/>
      <point x="311" y="-11"/>
      <point x="369" y="68"/>
      <point x="369" y="147" type="curve" smooth="yes"/>
      <point x="369" y="295"/>
      <point x="163" y="278"/>
      <point x="163" y="344" type="curve" smooth="yes"/>
      <point x="163" y="360"/>
      <point x="176" y="376"/>
      <point x="205" y="376" type="curve" smooth="yes"/>
      <point x="233" y="376"/>
      <point x="277" y="361"/>
      <point x="320" y="334" type="curve"/>
      <point x="339" y="340" type="line"/>
      <point x="359" y="453" type="line"/>
      <point x="319" y="468"/>
      <point x="271" y="477"/>
      <point x="223" y="477" type="curve" smooth="yes"/>
    </contour>
    <contour>
      <point x="192" y="0" type="move" name="bottom"/>
    </contour>
    <contour>
      <point x="198" y="468" type="move" name="top"/>
    </contour>
  </outline>
</glyph>
<glyph name="v" format="1">
  <advance width="454"/>
  <unicode hex="0076"/>
  <outline>
    <contour>
      <point x="10" y="465" type="line"/>
      <point x="136" y="0" type="line"/>
      <point x="308" y="0" type="line"/>
      <point x="457" y="468" type="line"/>
      <point x="320" y="468" type="line"/>
      <point x="302" y="378" type="line"/>
      <point x="235" y="147" type="line"/>
      <point x="226" y="147" type="line"/>
      <point x="171" y="387" type="line"/>
      <point x="158" y="471" type="line"/>
    </contour>
  </outline>
</glyph>
<glyph name="x" format="1">
  <advance width="473"/>
  <unicode hex="0078"/>
  <outline>
    <contour>
      <point x="8" y="464" type="line"/>
      <point x="140" y="234" type="line"/>
      <point x="9" y="0" type="line"/>
      <point x="147" y="0" type="line"/>
      <point x="170" y="50" type="line"/>
      <point x="226" y="147" type="line"/>
      <point x="277" y="57" type="line"/>
      <point x="301" y="-7" type="line"/>
      <point x="467" y="5" type="line"/>
      <point x="333" y="237" type="line"/>
      <point x="464" y="467" type="line"/>
      <point x="326" y="467" type="line"/>
      <point x="301" y="416" type="line"/>
      <point x="249" y="323" type="line"/>
      <point x="199" y="410" type="line"/>
      <point x="178" y="471" type="line"/>
    </contour>
  </outline>
</glyph>
<glyph name="y" format="1">
  <advance width="457"/>
  <unicode hex="0079"/>
  <outline>
    <contour>
      <point x="-5" y="465" type="line"/>
      <point x="166" y="0" type="line"/>
      <point x="116" y="-45"/>
      <point x="60" y="-69"/>
      <point x="-13" y="-82" type="curve"/>
      <point x="-19" y="-96" type="line"/>
      <point x="-1" y="-132"/>
      <point x="21" y="-163"/>
      <point x="51" y="-192" type="curve"/>
      <point x="63" y="-193" type="line"/>
      <point x="205" y="-151"/>
      <point x="271" y="-91"/>
      <point x="315" y="39" type="curve" smooth="yes"/>
      <point x="461" y="468" type="line"/>
      <point x="326" y="468" type="line"/>
      <point x="308" y="376" type="line"/>
      <point x="241" y="157" type="line"/>
      <point x="232" y="157" type="line"/>
      <point x="163" y="391" type="line"/>
      <point x="147" y="471" type="line"/>
    </contour>
    <contour>
      <point x="234" y="468" type="move" name="top"/>
    </contour>
  </outline>
</glyph>
<glyph name="z" format="1">
  <advance width="430"/>
  <unicode hex="007A"/>
  <outline>
    <contour>
      <point x="24" y="371" type="line"/>
      <point x="33" y="361" type="line"/>
      <point x="121" y="368" type="line"/>
      <point x="237" y="368" type="line"/>
      <point x="24" y="89" type="line"/>
      <point x="24" y="-4" type="line"/>
      <point x="97" y="0" type="line"/>
      <point x="273" y="0" type="line"/>
      <point x="400" y="-3" type="line"/>
      <point x="410" y="97" type="line"/>
      <point x="402" y="107" type="line"/>
      <point x="313" y="100" type="line"/>
      <point x="190" y="100" type="line"/>
      <point x="401" y="375" type="line"/>
      <point x="400" y="469" type="line"/>
      <point x="343" y="468" type="line"/>
      <point x="142" y="468" type="line"/>
      <point x="35" y="470" type="line"/>
    </contour>
    <contour>
      <point x="213" y="468" type="move" name="top"/>
    </contour>
  </outline>
</glyph>
<glyph name="braceleft" format="1">
  <advance width="298"/>
  <unicode hex="007B"/>
  <outline>
    <contour>
      <point x="125" y="658"/>
      <point x="74" y="614"/>
      <point x="74" y="537" type="curve" smooth="yes"/>
      <point x="74" y="479"/>
      <point x="95" y="424"/>
      <point x="95" y="384" type="curve" smooth="yes"/>
      <point x="95" y="347"/>
      <point x="74" y="322"/>
      <point x="32" y="308" type="curve"/>
      <point x="32" y="236" type="line"/>
      <point x="74" y="223"/>
      <point x="95" y="197"/>
      <point x="95" y="161" type="curve" smooth="yes"/>
      <point x="95" y="120"/>
      <point x="74" y="65"/>
      <point x="74" y="7" type="curve" smooth="yes"/>
      <point x="74" y="-69"/>
      <point x="125" y="-113"/>
      <point x="219" y="-113" type="curve" smooth="yes"/>
      <point x="244" y="-113"/>
      <point x="267" y="-110"/>
      <point x="290" y="-103" type="curve"/>
      <point x="296" y="-92" type="line"/>
      <point x="283" y="-13" type="line"/>
      <point x="271" y="-16"/>
      <point x="261" y="-18"/>
      <point x="249" y="-18" type="curve" smooth="yes"/>
      <point x="215" y="-18"/>
      <point x="198" y="2"/>
      <point x="198" y="39" type="curve" smooth="yes"/>
      <point x="198" y="78"/>
      <point x="222" y="125"/>
      <point x="222" y="168" type="curve" smooth="yes"/>
      <point x="222" y="210"/>
      <point x="199" y="248"/>
      <point x="153" y="269" type="curve"/>
      <point x="153" y="275" type="line"/>
      <point x="199" y="296"/>
      <point x="222" y="333"/>
      <point x="222" y="378" type="curve" smooth="yes"/>
      <point x="222" y="418"/>
      <point x="198" y="467"/>
      <point x="198" y="506" type="curve" smooth="yes"/>
      <point x="198" y="542"/>
      <point x="215" y="562"/>
      <point x="249" y="562" type="curve" smooth="yes"/>
      <point x="261" y="562"/>
      <point x="271" y="560"/>
      <point x="283" y="557" type="curve"/>
      <point x="296" y="636" type="line"/>
      <point x="290" y="647" type="line"/>
      <point x="267" y="654"/>
      <point x="244" y="658"/>
      <point x="219" y="658" type="curve" smooth="yes"/>
    </contour>
  </outline>
</glyph>
<glyph name="cent" format="1">
  <advance width="382"/>
  <unicode hex="00A2"/>
  <outline>
    <contour>
      <point x="167" y="95" type="line"/>
      <point x="155" y="-114" type="line" smooth="yes"/>
      <point x="167" y="-126" type="line" smooth="yes"/>
      <point x="273" y="-126" type="line" smooth="yes"/>
      <point x="285" y="95" type="line"/>
    </contour>
    <contour>
      <point x="200" y="659" type="line" smooth="yes"/>
      <point x="188" y="447" type="line"/>
      <point x="307" y="447" type="line"/>
      <point x="318" y="645" type="line" smooth="yes"/>
      <point x="303" y="659" type="line" smooth="yes"/>
    </contour>
    <contour>
      <point x="109" y="517"/>
      <point x="23" y="424"/>
      <point x="23" y="266" type="curve" smooth="yes"/>
      <point x="23" y="116"/>
      <point x="99" y="28"/>
      <point x="230" y="28" type="curve" smooth="yes"/>
      <point x="272" y="28"/>
      <point x="315" y="34"/>
      <point x="354" y="45" type="curve"/>
      <point x="370" y="164" type="line"/>
      <point x="358" y="173" type="line"/>
      <point x="323" y="160"/>
      <point x="293" y="152"/>
      <point x="265" y="152" type="curve" smooth="yes"/>
      <point x="205" y="152"/>
      <point x="174" y="196"/>
      <point x="174" y="282" type="curve" smooth="yes"/>
      <point x="174" y="352"/>
      <point x="202" y="389"/>
      <point x="255" y="389" type="curve" smooth="yes"/>
      <point x="282" y="389"/>
      <point x="308" y="379"/>
      <point x="340" y="364" type="curve"/>
      <point x="352" y="369" type="line"/>
      <point x="378" y="493" type="line"/>
      <point x="344" y="508"/>
      <point x="299" y="517"/>
      <point x="255" y="517" type="curve" smooth="yes"/>
    </contour>
    <contour>
      <point x="241" y="507" type="move" name="top"/>
    </contour>
    <contour>
      <point x="222" y="39" type="move" name="bottom"/>
    </contour>
  </outline>
</glyph>
<glyph name="sterling" format="1">
  <advance width="460"/>
  <unicode hex="00A3"/>
  <outline>
    <contour>
      <point x="174" y="596"/>
      <point x="92" y="528"/>
      <point x="93" y="404" type="curve" smooth="yes"/>
      <point x="95" y="191" type="line" smooth="yes"/>
      <point x="95" y="136"/>
      <point x="73" y="107"/>
      <point x="22" y="95" type="curve"/>
      <point x="15" y="8" type="line"/>
      <point x="21" y="0" type="line"/>
      <point x="287" y="0" type="line" smooth="yes"/>
      <point x="426" y="-4" type="line"/>
      <point x="437" y="105" type="line"/>
      <point x="432" y="113" type="line"/>
      <point x="327" y="105" type="line"/>
      <point x="192" y="105" type="line"/>
      <point x="192" y="109" type="line"/>
      <point x="219" y="131"/>
      <point x="229" y="154"/>
      <point x="229" y="199" type="curve" smooth="yes"/>
      <point x="231" y="429" type="line" smooth="yes"/>
      <point x="231" y="476"/>
      <point x="257" y="495"/>
      <point x="300" y="495" type="curve" smooth="yes"/>
      <point x="330" y="495"/>
      <point x="366" y="486"/>
      <point x="413" y="463" type="curve"/>
      <point x="423" y="470" type="line"/>
      <point x="432" y="581" type="line"/>
      <point x="390" y="591"/>
      <point x="352" y="596"/>
      <point x="314" y="596" type="curve" smooth="yes"/>
    </contour>
    <contour>
      <point x="22" y="347" type="line"/>
      <point x="15" y="270" type="line"/>
      <point x="20" y="262" type="line"/>
      <point x="356" y="262" type="line"/>
      <point x="362" y="340" type="line"/>
      <point x="357" y="347" type="line"/>
    </contour>
  </outline>
</glyph>
<glyph name="dieresis" format="1">
  <advance width="388"/>
  <unicode hex="00A8"/>
  <outline>
    <component base="dotaccent" xOffset="-13" yOffset="63" xScale="0.90" yScale="0.90"/>
    <component base="dotaccent" xOffset="169" yOffset="63" xScale="0.90" yScale="0.90"/>
    <contour>
      <point x="194" y="468" type="move" name="_top"/>
    </contour>
  </outline>
</glyph>
<glyph name="registered" format="1">
  <advance width="449"/>
  <unicode hex="00AE"/>
  <outline>
    <contour>
      <point x="112" y="703"/>
      <point x="36" y="627"/>
      <point x="36" y="514" type="curve" smooth="yes"/>
      <point x="36" y="401"/>
      <point x="112" y="325"/>
      <point x="225" y="325" type="curve" smooth="yes"/>
      <point x="338" y="325"/>
      <point x="413" y="401"/>
      <point x="413" y="514" type="curve" smooth="yes"/>
      <point x="413" y="627"/>
      <point x="338" y="703"/>
      <point x="225" y="703" type="curve" smooth="yes"/>
    </contour>
    <contour>
      <point x="149" y="618" type="line"/>
      <point x="151" y="479" type="line"/>
      <point x="149" y="423" type="line"/>
      <point x="204" y="423" type="line"/>
      <point x="201" y="486" type="line"/>
      <point x="205" y="618" type="line"/>
    </contour>
    <contour>
      <point x="217" y="509" type="line"/>
      <point x="230" y="480"/>
      <point x="245" y="451"/>
      <point x="262" y="423" type="curve"/>
      <point x="269" y="419" type="line"/>
      <point x="288" y="421"/>
      <point x="306" y="423"/>
      <point x="322" y="429" type="curve"/>
      <point x="323" y="435" type="line"/>
      <point x="303" y="459"/>
      <point x="284" y="484"/>
      <point x="267" y="510" type="curve"/>
    </contour>
    <contour>
      <point x="316" y="666"/>
      <point x="376" y="605"/>
      <point x="376" y="514" type="curve" smooth="yes"/>
      <point x="376" y="423"/>
      <point x="316" y="362"/>
      <point x="225" y="362" type="curve" smooth="yes"/>
      <point x="134" y="362"/>
      <point x="73" y="423"/>
      <point x="73" y="514" type="curve" smooth="yes"/>
      <point x="73" y="605"/>
      <point x="134" y="666"/>
      <point x="225" y="666" type="curve" smooth="yes"/>
    </contour>
    <contour>
      <point x="149" y="618" type="line"/>
      <point x="181" y="576" type="line"/>
      <point x="221" y="579" type="line"/>
      <point x="244" y="578"/>
      <point x="254" y="570"/>
      <point x="254" y="553" type="curve" smooth="yes"/>
      <point x="254" y="537"/>
      <point x="247" y="529"/>
      <point x="232" y="522" type="curve"/>
      <point x="169" y="526" type="line"/>
      <point x="169" y="483" type="line"/>
      <point x="234" y="483" type="line"/>
      <point x="281" y="493"/>
      <point x="311" y="523"/>
      <point x="311" y="557" type="curve" smooth="yes"/>
      <point x="311" y="597"/>
      <point x="286" y="619"/>
      <point x="240" y="619" type="curve"/>
    </contour>
  </outline>
</glyph>
<glyph name="acute" format="1">
  <advance width="388"/>
  <unicode hex="00B4"/>
  <outline>
    <contour>
      <point x="193" y="682"/>
      <point x="134" y="633"/>
      <point x="65" y="581" type="curve"/>
      <point x="102" y="521" type="line"/>
      <point x="116" y="520" type="line"/>
      <point x="184" y="556"/>
      <point x="249" y="592"/>
      <point x="323" y="635" type="curve"/>
      <point x="325" y="649" type="line"/>
      <point x="269" y="736" type="line"/>
      <point x="254" y="737" type="line"/>
    </contour>
    <contour>
      <point x="173" y="468" type="move" name="_top"/>
    </contour>
  </outline>
</glyph>
<glyph name="cedilla" format="1">
  <advance width="388"/>
  <unicode hex="00B8"/>
  <outline>
    <contour>
      <point x="159" y="29" type="line"/>
      <point x="137" y="-77" type="line"/>
      <point x="186" y="-104" type="line" smooth="yes"/>
      <point x="195" y="-109"/>
      <point x="201" y="-114"/>
      <point x="201" y="-122" type="curve" smooth="yes"/>
      <point x="201" y="-134"/>
      <point x="193" y="-140"/>
      <point x="180" y="-140" type="curve" smooth="yes"/>
      <point x="163" y="-140"/>
      <point x="141" y="-130"/>
      <point x="121" y="-111" type="curve"/>
      <point x="114" y="-114" type="line"/>
      <point x="104" y="-178" type="line"/>
      <point x="127" y="-193"/>
      <point x="155" y="-204"/>
      <point x="190" y="-204" type="curve" smooth="yes"/>
      <point x="252" y="-204"/>
      <point x="291" y="-171"/>
      <point x="291" y="-126" type="curve" smooth="yes"/>
      <point x="291" y="-102"/>
      <point x="281" y="-82"/>
      <point x="249" y="-65" type="curve" smooth="yes"/>
      <point x="215" y="-46" type="line"/>
      <point x="231" y="29" type="line"/>
    </contour>
    <contour>
      <point x="190" y="-1" type="move" name="_bottom"/>
    </contour>
  </outline>
</glyph>
<glyph name="AE" format="1">
  <advance width="830"/>
  <unicode hex="00C6"/>
  <outline>
    <contour>
      <point x="278" y="645" type="line"/>
      <point x="-18" y="0" type="line"/>
      <point x="142" y="0" type="line"/>
      <point x="173" y="103" type="line"/>
      <point x="348" y="497" type="line"/>
      <point x="358" y="497" type="line"/>
      <point x="402" y="93" type="line"/>
      <point x="407" y="0" type="line"/>
      <point x="815" y="0" type="line"/>
      <point x="825" y="120" type="line"/>
      <point x="816" y="132" type="line"/>
      <point x="651" y="126" type="line"/>
      <point x="553" y="126" type="line"/>
      <point x="513" y="519" type="line"/>
      <point x="596" y="519" type="line"/>
      <point x="749" y="513" type="line"/>
      <point x="760" y="633" type="line"/>
      <point x="751" y="645" type="line"/>
    </contour>
    <contour>
      <point x="500" y="358" type="line"/>
      <point x="157" y="261" type="line"/>
      <point x="118" y="125" type="line"/>
      <point x="516" y="238" type="line"/>
      <point x="738" y="295" type="line"/>
      <point x="725" y="408" type="line"/>
      <point x="713" y="417" type="line"/>
    </contour>
    <contour>
      <point x="504" y="645" type="move" name="top"/>
    </contour>
  </outline>
</glyph>
<glyph name="oslash" format="1">
  <advance width="495"/>
  <unicode hex="00F8"/>
  <outline>
    <contour>
      <point x="112" y="107" type="line"/>
      <point x="9" y="-71" type="line"/>
      <point x="13" y="-84" type="line"/>
      <point x="103" y="-129" type="line"/>
      <point x="205" y="47" type="line"/>
    </contour>
    <contour>
      <point x="386" y="365" type="line"/>
      <point x="478" y="522" type="line"/>
      <point x="470" y="537" type="line"/>
      <point x="384" y="580" type="line"/>
      <point x="293" y="424" type="line"/>
    </contour>
    <component base="o"/>
    <contour>
      <point x="248" y="468" type="move" name="top"/>
    </contour>
  </outline>
</glyph>
<glyph name="thorn" format="1">
  <advance width="526"/>
  <unicode hex="00FE"/>
  <outline>
    <contour>
      <point x="280" y="458"/>
      <point x="248" y="435"/>
      <point x="214" y="401" type="curve"/>
      <point x="193" y="401" type="line"/>
      <point x="193" y="306" type="line"/>
      <point x="224" y="336"/>
      <point x="249" y="348"/>
      <point x="276" y="348" type="curve" smooth="yes"/>
      <point x="329" y="348"/>
      <point x="354" y="306"/>
      <point x="355" y="226" type="curve" smooth="yes"/>
      <point x="356" y="126"/>
      <point x="318" y="90"/>
      <point x="262" y="90" type="curve" smooth="yes"/>
      <point x="216" y="90"/>
      <point x="151" y="121"/>
      <point x="86" y="187" type="curve"/>
      <point x="85" y="42" type="line"/>
      <point x="145" y="9"/>
      <point x="210" y="-11"/>
      <point x="268" y="-11" type="curve"/>
      <point x="412" y="-11"/>
      <point x="504" y="79"/>
      <point x="504" y="247" type="curve" smooth="yes"/>
      <point x="504" y="388"/>
      <point x="438" y="474"/>
      <point x="320" y="474" type="curve"/>
    </contour>
    <contour>
      <point x="56" y="691" type="line"/>
      <point x="63" y="191" type="line"/>
      <point x="57" y="-185" type="line"/>
      <point x="211" y="-185" type="line"/>
      <point x="206" y="210" type="line"/>
      <point x="214" y="702" type="line"/>
    </contour>
  </outline>
</glyph>
<glyph name="Aogonek" format="1">
  <advance width="611"/>
  <unicode hex="0104"/>
  <outline>
    <contour>
      <point x="471" y="1" type="line"/>
      <point x="435" y="-43"/>
      <point x="423" y="-72"/>
      <point x="423" y="-104" type="curve" smooth="yes"/>
      <point x="423" y="-159"/>
      <point x="459" y="-197"/>
      <point x="518" y="-197" type="curve" smooth="yes"/>
      <point x="555" y="-197"/>
      <point x="587" y="-181"/>
      <point x="626" y="-149" type="curve"/>
      <point x="614" y="-87" type="line"/>
      <point x="606" y="-87" type="line"/>
      <point x="584" y="-103"/>
      <point x="561" y="-113"/>
      <point x="541" y="-113" type="curve" smooth="yes"/>
      <point x="517" y="-113"/>
      <point x="506" y="-100"/>
      <point x="506" y="-80" type="curve" smooth="yes"/>
      <point x="506" y="-62"/>
      <point x="515" y="-39"/>
      <point x="545" y="1" type="curve"/>
    </contour>
    <component base="A"/>
  </outline>
</glyph>
<glyph name="aogonek" format="1">
  <advance width="489"/>
  <unicode hex="0105"/>
  <outline>
    <contour>
      <point x="373" y="26" type="line"/>
      <point x="306" y="-36"/>
      <point x="284" y="-66"/>
      <point x="284" y="-107" type="curve" smooth="yes"/>
      <point x="284" y="-160"/>
      <point x="322" y="-197"/>
      <point x="377" y="-197" type="curve" smooth="yes"/>
      <point x="414" y="-197"/>
      <point x="442" y="-180"/>
      <point x="475" y="-150" type="curve"/>
      <point x="463" y="-88" type="line"/>
      <point x="455" y="-88" type="line"/>
      <point x="436" y="-104"/>
      <point x="418" y="-112"/>
      <point x="400" y="-112" type="curve" smooth="yes"/>
      <point x="379" y="-112"/>
      <point x="367" y="-100"/>
      <point x="367" y="-82" type="curve" smooth="yes"/>
      <point x="367" y="-62"/>
      <point x="383" y="-41"/>
      <point x="453" y="18" type="curve"/>
    </contour>
    <component base="a"/>
  </outline>
</glyph>
<glyph name="hbar" format="1">
  <advance width="540"/>
  <unicode hex="0127"/>
  <outline>
    <contour>
      <point x="-3" y="619" type="line"/>
      <point x="-9" y="545" type="line"/>
      <point x="1" y="535" type="line"/>
      <point x="326" y="535" type="line"/>
      <point x="332" y="608" type="line"/>
      <point x="322" y="619" type="line"/>
    </contour>
    <component base="h" xOffset="4"/>
  </outline>
</glyph>
<glyph name="dotlessi" format="1">
  <advance width="261"/>
  <unicode hex="0131"/>
  <outline>
    <contour>
      <point x="53" y="458" type="line"/>
      <point x="59" y="191" type="line"/>
      <point x="51" y="0" type="line"/>
      <point x="209" y="0" type="line"/>
      <point x="202" y="207" type="line"/>
      <point x="210" y="470" type="line"/>
    </contour>
    <contour>
      <point x="225" y="18" type="move" name="ogonek"/>
    </contour>
    <contour>
      <point x="133" y="468" type="move" name="top"/>
    </contour>
  </outline>
</glyph>
<glyph name="lcaron" format="1">
  <advance width="348"/>
  <unicode hex="013E"/>
  <outline>
    <contour>
      <point x="268" y="102" type="move"/>
    </contour>
    <component base="l"/>
    <component base="caron.alt" xOffset="121" yOffset="-92"/>
  </outline>
</glyph>
<glyph name="tbar" format="1">
  <advance width="353"/>
  <unicode hex="0167"/>
  <outline>
    <contour>
      <point x="17" y="300" type="line"/>
      <point x="11" y="225" type="line"/>
      <point x="21" y="215" type="line"/>
      <point x="321" y="215" type="line"/>
      <point x="327" y="289" type="line"/>
      <point x="317" y="300" type="line"/>
    </contour>
    <component base="t" xOffset="2.667"/>
  </outline>
</glyph>
<glyph name="uogonek" format="1">
  <advance width="527"/>
  <unicode hex="0173"/>
  <outline>
    <contour>
      <point x="417" y="26" type="line"/>
      <point x="350" y="-36"/>
      <point x="328" y="-66"/>
      <point x="328" y="-107" type="curve" smooth="yes"/>
      <point x="328" y="-160"/>
      <point x="366" y="-197"/>
      <point x="421" y="-197" type="curve" smooth="yes"/>
      <point x="458" y="-197"/>
      <point x="486" y="-180"/>
      <point x="519" y="-150" type="curve"/>
      <point x="507" y="-88" type="line"/>
      <point x="499" y="-88" type="line"/>
      <point x="480" y="-104"/>
      <point x="462" y="-112"/>
      <point x="444" y="-112" type="curve" smooth="yes"/>
      <point x="423" y="-112"/>
      <point x="411" y="-100"/>
      <point x="411" y="-82" type="curve" smooth="yes"/>
      <point x="411" y="-62"/>
      <point x="427" y="-41"/>
      <point x="497" y="18" type="curve"/>
    </contour>
    <component base="u"/>
  </outline>
</glyph>
<glyph name="uhorn" format="1">
  <advance width="537"/>
  <unicode hex="01B0"/>
  <outline>
    <contour>
      <point x="462" y="620"/>
      <point x="435" y="606"/>
      <point x="409" y="584" type="curve"/>
      <point x="406" y="572" type="line"/>
      <point x="426" y="555"/>
      <point x="436" y="535"/>
      <point x="436" y="514" type="curve" smooth="yes"/>
      <point x="436" y="486"/>
      <point x="416" y="470"/>
      <point x="371" y="465" type="curve" smooth="yes"/>
      <point x="320" y="458" type="line"/>
      <point x="320" y="150" type="line"/>
      <point x="297" y="130"/>
      <point x="276" y="120"/>
      <point x="252" y="120" type="curve" smooth="yes"/>
      <point x="216" y="120"/>
      <point x="199" y="141"/>
      <point x="199" y="185" type="curve" smooth="yes"/>
      <point x="201" y="470" type="line"/>
      <point x="49" y="458" type="line"/>
      <point x="54" y="239" type="line"/>
      <point x="52" y="127" type="line" smooth="yes"/>
      <point x="51" y="42"/>
      <point x="106" y="-6"/>
      <point x="206" y="-6" type="curve"/>
      <point x="247" y="6"/>
      <point x="284" y="30"/>
      <point x="319" y="66" type="curve"/>
      <point x="326" y="66" type="line"/>
      <point x="344" y="17"/>
      <point x="372" y="-7"/>
      <point x="420" y="-8" type="curve" smooth="yes"/>
      <point x="449" y="-7"/>
      <point x="476" y="2"/>
      <point x="499" y="18" type="curve"/>
      <point x="514" y="101" type="line"/>
      <point x="503" y="110" type="line"/>
      <point x="493" y="108"/>
      <point x="487" y="107"/>
      <point x="481" y="107" type="curve" smooth="yes"/>
      <point x="467" y="107"/>
      <point x="461" y="114"/>
      <point x="461" y="134" type="curve" smooth="yes"/>
      <point x="468" y="414" type="line"/>
      <point x="519" y="434"/>
      <point x="559" y="481"/>
      <point x="559" y="536" type="curve" smooth="yes"/>
      <point x="559" y="585"/>
      <point x="525" y="620"/>
      <point x="487" y="620" type="curve" smooth="yes"/>
    </contour>
    <contour>
      <point x="242" y="468" type="move" name="top"/>
    </contour>
  </outline>
</glyph>
<glyph name="dotlessj" format="1">
  <advance width="294"/>
  <unicode hex="0237"/>
  <outline>
    <contour>
      <point x="86" y="464" type="line"/>
      <point x="7" y="464" type="line"/>
      <point x="0" y="379" type="line"/>
      <point x="9" y="370" type="line"/>
      <point x="82" y="370" type="line"/>
      <point x="86" y="191" type="line"/>
      <point x="86" y="26" type="line" smooth="yes"/>
      <point x="86" y="-41"/>
      <point x="63" y="-82"/>
      <point x="8" y="-112" type="curve"/>
      <point x="8" y="-126" type="line"/>
      <point x="62" y="-196" type="line"/>
      <point x="183" y="-144"/>
      <point x="236" y="-76"/>
      <point x="236" y="30" type="curve"/>
      <point x="229" y="207" type="line"/>
      <point x="238" y="468" type="line"/>
      <point x="233" y="471" type="line"/>
    </contour>
    <contour>
      <point x="146" y="468" type="move" name="top"/>
    </contour>
  </outline>
</glyph>
<glyph name="ogonek" format="1">
  <advance width="388"/>
  <unicode hex="02DB"/>
  <outline>
    <contour>
      <point x="185" y="71" type="line"/>
      <point x="119" y="-20" type="line" smooth="yes"/>
      <point x="97" y="-49"/>
      <point x="88" y="-78"/>
      <point x="88" y="-105" type="curve" smooth="yes"/>
      <point x="88" y="-157"/>
      <point x="125" y="-197"/>
      <point x="184" y="-197" type="curve" smooth="yes"/>
      <point x="221" y="-197"/>
      <point x="252" y="-182"/>
      <point x="291" y="-149" type="curve"/>
      <point x="279" y="-87" type="line"/>
      <point x="271" y="-87" type="line"/>
      <point x="250" y="-103"/>
      <point x="227" y="-113"/>
      <point x="208" y="-113" type="curve" smooth="yes"/>
      <point x="182" y="-113"/>
      <point x="171" y="-98"/>
      <point x="171" y="-77" type="curve" smooth="yes"/>
      <point x="171" y="-63"/>
      <point x="177" y="-48"/>
      <point x="187" y="-32" type="curve" smooth="yes"/>
      <point x="255" y="71" type="line"/>
    </contour>
    <contour>
      <point x="291" y="10" type="move" name="_ogonek"/>
    </contour>
  </outline>
</glyph>
<glyph name="commaaccentcomb" format="1">
  <advance width="238"/>
  <unicode hex="0326"/>
  <outline>
    <component base="comma" xOffset="13" yOffset="-168" xScale="0.88" yScale="0.88"/>
    <contour>
      <point x="103" y="0" type="move" name="_bottom"/>
    </contour>
  </outline>
</glyph>
<glyph name="uni1E9E" format="1">
  <advance width="686"/>
  <unicode hex="1E9E"/>
  <outline>
    <contour>
      <point x="158" y="655"/>
      <point x="58" y="558"/>
      <point x="58" y="410" type="curve" smooth="yes"/>
      <point x="63" y="190" type="line"/>
      <point x="54" y="0" type="line"/>
      <point x="217" y="0" type="line"/>
      <point x="210" y="207" type="line"/>
      <point x="214" y="410" type="line"/>
      <point x="214" y="488"/>
      <point x="251" y="526"/>
      <point x="334" y="526" type="curve" smooth="yes"/>
      <point x="367" y="526"/>
      <point x="394" y="520"/>
      <point x="426" y="507" type="curve"/>
      <point x="301" y="334" type="line"/>
      <point x="306" y="312" type="line"/>
      <point x="463" y="240"/>
      <point x="511" y="203"/>
      <point x="511" y="162" type="curve" smooth="yes"/>
      <point x="511" y="133"/>
      <point x="489" y="112"/>
      <point x="453" y="112" type="curve" smooth="yes"/>
      <point x="411" y="112"/>
      <point x="355" y="139"/>
      <point x="303" y="185" type="curve"/>
      <point x="286" y="175" type="line"/>
      <point x="263" y="30" type="line"/>
      <point x="318" y="4"/>
      <point x="383" y="-10"/>
      <point x="443" y="-10" type="curve" smooth="yes"/>
      <point x="566" y="-10"/>
      <point x="672" y="52"/>
      <point x="672" y="181" type="curve" smooth="yes"/>
      <point x="672" y="277"/>
      <point x="612" y="314"/>
      <point x="494" y="383" type="curve"/>
      <point x="626" y="564" type="line"/>
      <point x="620" y="585" type="line"/>
      <point x="523" y="630"/>
      <point x="444" y="655"/>
      <point x="348" y="655" type="curve" smooth="yes"/>
    </contour>
  </outline>
</glyph>
<glyph name="Odotbelow" format="1">
  <advance width="647"/>
  <unicode hex="1ECC"/>
  <outline>
    <component base="O"/>
    <component base="dotbelowcomb" xOffset="208"/>
    <contour>
      <point x="324" y="645" type="move" name="top"/>
    </contour>
  </outline>
</glyph>
<glyph name="endash" format="1">
  <advance width="460"/>
  <unicode hex="2013"/>
  <outline>
    <contour>
      <point x="-7" y="312" type="line"/>
      <point x="-15" y="216" type="line"/>
      <point x="-5" y="205" type="line"/>
      <point x="467" y="205" type="line"/>
      <point x="475" y="301" type="line"/>
      <point x="465" y="312" type="line"/>
    </contour>
  </outline>
</glyph>
<glyph name="emdash" format="1">
  <advance width="869"/>
  <unicode hex="2014"/>
  <outline>
    <contour>
      <point x="-10" y="312" type="line"/>
      <point x="-18" y="216" type="line"/>
      <point x="-8" y="205" type="line"/>
      <point x="880" y="205" type="line"/>
      <point x="887" y="301" type="line"/>
      <point x="877" y="312" type="line"/>
    </contour>
  </outline>
</glyph>
<glyph name="infinity" format="1">
  <advance width="480"/>
  <unicode hex="221E"/>
  <outline>
    <contour>
      <point x="293" y="417"/>
      <point x="254" y="383"/>
      <point x="232" y="349" type="curve"/>
      <point x="203" y="393"/>
      <point x="170" y="417"/>
      <point x="120" y="417" type="curve" smooth="yes"/>
      <point x="41" y="417"/>
      <point x="-12" y="361"/>
      <point x="-12" y="261" type="curve" smooth="yes"/>
      <point x="-12" y="166"/>
      <point x="38" y="103"/>
      <point x="123" y="103" type="curve" smooth="yes"/>
      <point x="181" y="103"/>
      <point x="222" y="132"/>
      <point x="246" y="173" type="curve"/>
      <point x="278" y="125"/>
      <point x="312" y="103"/>
      <point x="358" y="103" type="curve" smooth="yes"/>
      <point x="434" y="103"/>
      <point x="490" y="157"/>
      <point x="490" y="259" type="curve" smooth="yes"/>
      <point x="490" y="353"/>
      <point x="441" y="417"/>
      <point x="355" y="417" type="curve" smooth="yes"/>
    </contour>
    <contour>
      <point x="158" y="320"/>
      <point x="178" y="303"/>
      <point x="195" y="275" type="curve"/>
      <point x="179" y="236"/>
      <point x="159" y="205"/>
      <point x="123" y="205" type="curve" smooth="yes"/>
      <point x="94" y="205"/>
      <point x="75" y="225"/>
      <point x="75" y="262" type="curve" smooth="yes"/>
      <point x="75" y="298"/>
      <point x="94" y="320"/>
      <point x="128" y="320" type="curve" smooth="yes"/>
    </contour>
    <contour>
      <point x="384" y="316"/>
      <point x="402" y="295"/>
      <point x="402" y="259" type="curve" smooth="yes"/>
      <point x="402" y="220"/>
      <point x="382" y="199"/>
      <point x="350" y="199" type="curve" smooth="yes"/>
      <point x="320" y="199"/>
      <point x="300" y="218"/>
      <point x="283" y="246" type="curve"/>
      <point x="298" y="282"/>
      <point x="315" y="316"/>
      <point x="353" y="316" type="curve" smooth="yes"/>
    </contour>
  </outline>
</glyph>
<glyph name="C.ss01" format="1">
  <advance width="451"/>
  <outline>
    <contour>
      <point x="-100" y="453" type="line"/>
      <point x="551" y="453" type="line"/>
      <point x="551" y="508" type="line"/>
      <point x="-100" y="508" type="line"/>
    </contour>
    <contour>
      <point x="-100" y="0" type="line"/>
      <point x="551" y="0" type="line"/>
      <point x="551" y="55" type="line"/>
      <point x="-100" y="55" type="line"/>
    </contour>
    <contour>
      <point x="128" y="504"/>
      <point x="34" y="411"/>
      <point x="34" y="250" type="curve" smooth="yes"/>
      <point x="34" y="90"/>
      <point x="119" y="2"/>
      <point x="285" y="2" type="curve" smooth="yes"/>
      <point x="325" y="2"/>
      <point x="363" y="7"/>
      <point x="402" y="19" type="curve"/>
      <point x="414" y="135" type="line"/>
      <point x="402" y="143" type="line"/>
      <point x="371" y="130"/>
      <point x="328" y="121"/>
      <point x="296" y="121" type="curve" smooth="yes"/>
      <point x="222" y="121"/>
      <point x="186" y="167"/>
      <point x="186" y="266" type="curve" smooth="yes"/>
      <point x="186" y="354"/>
      <point x="218" y="388"/>
      <point x="287" y="388" type="curve" smooth="yes"/>
      <point x="322" y="388"/>
      <point x="363" y="377"/>
      <point x="391" y="360" type="curve"/>
      <point x="402" y="366" type="line"/>
      <point x="426" y="483" type="line"/>
      <point x="388" y="497"/>
      <point x="344" y="504"/>
      <point x="294" y="504" type="curve" smooth="yes"/>
    </contour>
    <contour>
      <point x="269" y="11" type="move" name="bottom"/>
    </contour>
    <contour>
      <point x="271" y="497" type="move" name="top"/>
    </contour>
  </outline>
</glyph>
<glyph name="D.ss01" format="1">
  <advance width="572"/>
  <outline>
    <contour>
      <point x="-100" y="453" type="line"/>
      <point x="672" y="453" type="line"/>
      <point x="672" y="508" type="line"/>
      <point x="-100" y="508" type="line"/>
    </contour>
    <contour>
      <point x="-100" y="0" type="line"/>
      <point x="672" y="0" type="line"/>
      <point x="672" y="55" type="line"/>
      <point x="-100" y="55" type="line"/>
    </contour>
    <contour>
      <point x="73" y="499" type="line"/>
      <point x="202" y="383" type="line"/>
      <point x="229" y="386"/>
      <point x="268" y="387"/>
      <point x="288" y="387" type="curve" smooth="yes"/>
      <point x="358" y="387"/>
      <point x="386" y="349"/>
      <point x="386" y="238" type="curve" smooth="yes"/>
      <point x="386" y="144"/>
      <point x="350" y="110"/>
      <point x="291" y="110" type="curve" smooth="yes"/>
      <point x="271" y="110"/>
      <point x="223" y="115"/>
      <point x="198" y="120" type="curve"/>
      <point x="73" y="8" type="line"/>
      <point x="133" y="4"/>
      <point x="216" y="1"/>
      <point x="265" y="1" type="curve" smooth="yes"/>
      <point x="439" y="1"/>
      <point x="536" y="98"/>
      <point x="536" y="273" type="curve" smooth="yes"/>
      <point x="536" y="420"/>
      <point x="452" y="502"/>
      <point x="300" y="502" type="curve"/>
    </contour>
    <contour>
      <point x="73" y="499" type="line"/>
      <point x="80" y="152" type="line"/>
      <point x="73" y="8" type="line"/>
      <point x="218" y="8" type="line"/>
      <point x="212" y="166" type="line"/>
      <point x="220" y="499" type="line"/>
    </contour>
    <contour>
      <point x="275" y="254" type="move" name="center"/>
    </contour>
    <contour>
      <point x="272" y="499" type="move" name="top"/>
    </contour>
  </outline>
</glyph>
<glyph name="M.ss01" format="1">
  <advance width="688"/>
  <outline>
    <contour>
      <point x="-100" y="508" type="line"/>
      <point x="-100" y="453" type="line"/>
      <point x="788" y="453" type="line"/>
      <point x="788" y="508" type="line"/>
    </contour>
    <contour>
      <point x="-100" y="55" type="line"/>
      <point x="-100" y="0" type="line"/>
      <point x="788" y="0" type="line"/>
      <point x="788" y="55" type="line"/>
    </contour>
    <contour>
      <point x="424" y="489" type="line"/>
      <point x="404" y="426" type="line"/>
      <point x="346" y="273" type="line"/>
      <point x="337" y="273" type="line"/>
      <point x="284" y="429" type="line"/>
      <point x="268" y="489" type="line"/>
      <point x="101" y="489" type="line"/>
      <point x="52" y="11" type="line"/>
      <point x="173" y="11" type="line"/>
      <point x="180" y="185" type="line"/>
      <point x="191" y="298" type="line"/>
      <point x="200" y="298" type="line"/>
      <point x="279" y="90" type="line"/>
      <point x="388" y="90" type="line"/>
      <point x="479" y="298" type="line"/>
      <point x="487" y="298" type="line"/>
      <point x="498" y="174" type="line"/>
      <point x="502" y="11" type="line"/>
      <point x="628" y="11" type="line"/>
      <point x="586" y="489" type="line"/>
    </contour>
  </outline>
</glyph>
<glyph name="acute.cap" format="1">
  <advance width="388"/>
  <outline>
    <contour>
      <point x="203" y="682"/>
      <point x="135" y="645"/>
      <point x="58" y="607" type="curve"/>
      <point x="83" y="541" type="line"/>
      <point x="98" y="537" type="line"/>
      <point x="171" y="560"/>
      <point x="242" y="583"/>
      <point x="322" y="612" type="curve"/>
      <point x="327" y="625" type="line"/>
      <point x="287" y="720" type="line"/>
      <point x="273" y="723" type="line"/>
    </contour>
    <contour>
      <point x="173" y="468" type="move" name="_top"/>
    </contour>
  </outline>
</glyph>
<glyph name="breveacute" format="1">
  <advance width="388"/>
  <outline>
    <contour>
      <point x="235" y="842" type="line"/>
      <point x="205" y="796"/>
      <point x="173" y="752"/>
      <point x="141" y="708" type="curve"/>
      <point x="189" y="670" type="line"/>
      <point x="202" y="673" type="line"/>
      <point x="243" y="710"/>
      <point x="282" y="747"/>
      <point x="321" y="786" type="curve"/>
      <point x="319" y="798" type="line"/>
      <point x="246" y="845" type="line"/>
    </contour>
    <component base="breve.cap" yOffset="-20"/>
    <contour>
      <point x="194" y="468" type="move" name="_top"/>
    </contour>
  </outline>
</glyph>
<glyph name="brevegrave" format="1">
  <advance width="388"/>
  <outline>
    <contour>
      <point x="72" y="798" type="line"/>
      <point x="70" y="786" type="line"/>
      <point x="109" y="747"/>
      <point x="148" y="710"/>
      <point x="189" y="673" type="curve"/>
      <point x="202" y="670" type="line"/>
      <point x="250" y="708" type="line"/>
      <point x="218" y="752"/>
      <point x="186" y="796"/>
      <point x="156" y="842" type="curve"/>
      <point x="145" y="845" type="line"/>
    </contour>
    <component base="breve.cap" yOffset="-20"/>
    <contour>
      <point x="194" y="468" type="move" name="_top"/>
    </contour>
  </outline>
</glyph>
<glyph name="circle2" format="1">
  <advance width="644"/>
  <outline>
    <contour>
      <point x="139" y="649"/>
      <point x="-9" y="500"/>
      <point x="-9" y="317" type="curve" smooth="yes"/>
      <point x="-9" y="134"/>
      <point x="139" y="-14"/>
      <point x="322" y="-14" type="curve" smooth="yes"/>
      <point x="505" y="-14"/>
      <point x="654" y="134"/>
      <point x="654" y="317" type="curve" smooth="yes"/>
      <point x="654" y="500"/>
      <point x="505" y="649"/>
      <point x="322" y="649" type="curve" smooth="yes"/>
    </contour>
  </outline>
</glyph>
<glyph name="circumflexacute" format="1">
  <advance width="388"/>
  <outline>
    <contour>
      <point x="321" y="836" type="line"/>
      <point x="251" y="702" type="line"/>
      <point x="304" y="662" type="line"/>
      <point x="314" y="662" type="line"/>
      <point x="415" y="796" type="line"/>
      <point x="411" y="807" type="line"/>
      <point x="332" y="841" type="line"/>
    </contour>
    <component base="circumflex.cap" yOffset="-20"/>
    <contour>
      <point x="194" y="468" type="move" name="_top"/>
    </contour>
  </outline>
</glyph>
<glyph name="circumflextilde" format="1">
  <advance width="388"/>
  <outline>
    <component base="circumflex.cap" yOffset="-20"/>
    <component base="tilde" xOffset="20" yOffset="204" xScale="0.92" yScale="0.93"/>
    <contour>
      <point x="194" y="468" type="move" name="_top"/>
    </contour>
  </outline>
</glyph>
<glyph name="down" format="1">
  <advance width="425"/>
  <outline>
    <contour>
      <point x="61" y="374" type="line"/>
      <point x="212" y="71" type="line"/>
      <point x="363" y="374" type="line"/>
    </contour>
  </outline>
</glyph>
<glyph name="e.sups" format="1">
  <advance width="337"/>
  <outline>
    <contour>
      <point x="80" y="652"/>
      <point x="19" y="591"/>
      <point x="19" y="486" type="curve" smooth="yes"/>
      <point x="19" y="381"/>
      <point x="81" y="319"/>
      <point x="191" y="319" type="curve" smooth="yes"/>
      <point x="225" y="319"/>
      <point x="265" y="326"/>
      <point x="298" y="336" type="curve"/>
      <point x="309" y="417" type="line" smooth="yes"/>
      <point x="301" y="424" type="line"/>
      <point x="265" y="411"/>
      <point x="229" y="405"/>
      <point x="201" y="405" type="curve" smooth="yes"/>
      <point x="147" y="405"/>
      <point x="128" y="432"/>
      <point x="128" y="493" type="curve" smooth="yes"/>
      <point x="128" y="548"/>
      <point x="143" y="576"/>
      <point x="177" y="576" type="curve" smooth="yes"/>
      <point x="201" y="576"/>
      <point x="219" y="561"/>
      <point x="219" y="533" type="curve" smooth="yes"/>
      <point x="219" y="528"/>
      <point x="219" y="526"/>
      <point x="218" y="519" type="curve"/>
      <point x="114" y="518" type="line"/>
      <point x="114" y="463" type="line"/>
      <point x="308" y="463" type="line"/>
      <point x="317" y="475" type="line"/>
      <point x="319" y="488"/>
      <point x="320" y="507"/>
      <point x="320" y="519" type="curve" smooth="yes"/>
      <point x="320" y="603"/>
      <point x="271" y="652"/>
      <point x="181" y="652" type="curve" smooth="yes"/>
    </contour>
    <contour>
      <point x="194" y="0" type="move" name="bottom"/>
    </contour>
    <contour>
      <point x="317" y="7" type="move" name="ogonek"/>
    </contour>
    <contour>
      <point x="181" y="318" type="move" name="top"/>
    </contour>
  </outline>
</glyph>
<glyph name="f.f" format="1">
  <advance width="333"/>
  <outline>
    <contour>
      <point x="174" y="690"/>
      <point x="94" y="620"/>
      <point x="95" y="492" type="curve"/>
      <point x="99" y="192" type="line"/>
      <point x="91" y="0" type="line"/>
      <point x="249" y="0" type="line"/>
      <point x="242" y="207" type="line"/>
      <point x="247" y="521" type="line"/>
      <point x="248" y="562"/>
      <point x="264" y="581"/>
      <point x="298" y="581" type="curve" smooth="yes"/>
      <point x="316" y="581"/>
      <point x="339" y="577"/>
      <point x="375" y="563" type="curve"/>
      <point x="386" y="570" type="line"/>
      <point x="394" y="681" type="line"/>
      <point x="367" y="687"/>
      <point x="342" y="690"/>
      <point x="313" y="690" type="curve" smooth="yes"/>
    </contour>
    <contour>
      <point x="29" y="464" type="line"/>
      <point x="22" y="378" type="line"/>
      <point x="27" y="370" type="line"/>
      <point x="478" y="370" type="line"/>
      <point x="485" y="455" type="line"/>
      <point x="481" y="464" type="line"/>
    </contour>
    <contour>
      <point x="190" y="0" type="move" name="bottom"/>
    </contour>
    <contour>
      <point x="298" y="749" type="move" name="top"/>
    </contour>
  </outline>
</glyph>
<glyph name="five.tosf" format="1">
  <advance width="475"/>
  <outline>
    <contour>
      <point x="319" y="509" type="line"/>
      <point x="155" y="509" type="line"/>
      <point x="93" y="512" type="line"/>
      <point x="76" y="495" type="line"/>
      <point x="70" y="198" type="line"/>
      <point x="80" y="186" type="line"/>
      <point x="186" y="169" type="line" smooth="yes"/>
      <point x="250" y="157"/>
      <point x="278" y="137"/>
      <point x="278" y="101" type="curve" smooth="yes"/>
      <point x="278" y="53"/>
      <point x="231" y="25"/>
      <point x="154" y="25" type="curve" smooth="yes"/>
      <point x="114" y="25"/>
      <point x="75" y="30"/>
      <point x="33" y="41" type="curve"/>
      <point x="22" y="30" type="line"/>
      <point x="30" y="-83" type="line"/>
      <point x="67" y="-91"/>
      <point x="115" y="-96"/>
      <point x="151" y="-96" type="curve" smooth="yes"/>
      <point x="318" y="-96"/>
      <point x="429" y="-11"/>
      <point x="429" y="118" type="curve" smooth="yes"/>
      <point x="429" y="206"/>
      <point x="374" y="257"/>
      <point x="258" y="281" type="curve" smooth="yes"/>
      <point x="193" y="294" type="line"/>
      <point x="196" y="386" type="line"/>
      <point x="312" y="386" type="line"/>
      <point x="410" y="374" type="line"/>
      <point x="421" y="385" type="line"/>
      <point x="438" y="506" type="line"/>
      <point x="429" y="516" type="line"/>
    </contour>
  </outline>
</glyph>
<glyph name="four.sinf" format="1">
  <advance width="374"/>
  <outline>
    <contour>
      <point x="182" y="269" type="line"/>
      <point x="17" y="42" type="line"/>
      <point x="17" y="-32" type="line"/>
      <point x="25" y="-42" type="line"/>
      <point x="98" y="-39" type="line"/>
      <point x="257" y="-39" type="line"/>
      <point x="345" y="-42" type="line"/>
      <point x="351" y="40" type="line"/>
      <point x="344" y="50" type="line"/>
      <point x="122" y="50" type="line"/>
      <point x="187" y="140" type="line"/>
      <point x="194" y="140" type="line"/>
      <point x="195" y="28" type="line"/>
      <point x="190" y="-118" type="line"/>
      <point x="197" y="-125" type="line"/>
      <point x="294" y="-120" type="line"/>
      <point x="300" y="-112" type="line"/>
      <point x="293" y="5" type="line"/>
      <point x="296" y="269" type="line"/>
    </contour>
  </outline>
</glyph>
<glyph name="four.tf" format="1">
  <advance width="475"/>
  <outline>
    <contour>
      <point x="236" y="586" type="line"/>
      <point x="10" y="241" type="line"/>
      <point x="10" y="140" type="line"/>
      <point x="20" y="127" type="line"/>
      <point x="115" y="130" type="line"/>
      <point x="334" y="130" type="line"/>
      <point x="450" y="127" type="line"/>
      <point x="457" y="238" type="line"/>
      <point x="448" y="252" type="line"/>
      <point x="145" y="252" type="line"/>
      <point x="242" y="410" type="line"/>
      <point x="251" y="410" type="line"/>
      <point x="252" y="221" type="line"/>
      <point x="246" y="2" type="line"/>
      <point x="254" y="-8" type="line"/>
      <point x="378" y="0" type="line"/>
      <point x="386" y="11" type="line"/>
      <point x="377" y="191" type="line"/>
      <point x="381" y="586" type="line"/>
    </contour>
  </outline>
</glyph>
<glyph name="i.sups" format="1">
  <advance width="193"/>
  <outline>
    <contour>
      <point x="40" y="639" type="line"/>
      <point x="44" y="457" type="line"/>
      <point x="38" y="327" type="line"/>
      <point x="156" y="327" type="line"/>
      <point x="151" y="468" type="line"/>
      <point x="156" y="647" type="line"/>
    </contour>
    <contour>
      <point x="63" y="813"/>
      <point x="40" y="788"/>
      <point x="40" y="750" type="curve" smooth="yes"/>
      <point x="40" y="712"/>
      <point x="60" y="691"/>
      <point x="96" y="691" type="curve" smooth="yes"/>
      <point x="135" y="691"/>
      <point x="158" y="715"/>
      <point x="158" y="754" type="curve" smooth="yes"/>
      <point x="158" y="791"/>
      <point x="137" y="813"/>
      <point x="102" y="813" type="curve" smooth="yes"/>
    </contour>
  </outline>
</glyph>
<glyph name="k.sups" format="1">
  <advance width="362"/>
  <outline>
    <contour>
      <point x="233" y="645" type="line"/>
      <point x="217" y="609" type="line"/>
      <point x="149" y="500" type="line"/>
      <point x="149" y="493" type="line"/>
      <point x="173" y="435"/>
      <point x="203" y="380"/>
      <point x="236" y="325" type="curve"/>
      <point x="249" y="319" type="line"/>
      <point x="286" y="323"/>
      <point x="322" y="327"/>
      <point x="359" y="334" type="curve"/>
      <point x="359" y="347" type="line"/>
      <point x="325" y="399"/>
      <point x="291" y="451"/>
      <point x="262" y="503" type="curve"/>
      <point x="353" y="645" type="line"/>
    </contour>
    <contour>
      <point x="40" y="795" type="line"/>
      <point x="43" y="457" type="line"/>
      <point x="38" y="327" type="line"/>
      <point x="156" y="327" type="line"/>
      <point x="151" y="468" type="line"/>
      <point x="156" y="803" type="line"/>
    </contour>
    <contour>
      <point x="197" y="0" type="move" name="bottom"/>
    </contour>
  </outline>
</glyph>
<glyph name="nine.dnom" format="1">
  <advance width="357"/>
  <outline>
    <contour>
      <point x="73" y="396"/>
      <point x="23" y="327"/>
      <point x="23" y="261" type="curve"/>
      <point x="23" y="200"/>
      <point x="66" y="142"/>
      <point x="143" y="142" type="curve" smooth="yes"/>
      <point x="161" y="142"/>
      <point x="181" y="146"/>
      <point x="197" y="152" type="curve"/>
      <point x="219" y="129" type="line"/>
      <point x="234" y="238" type="line"/>
      <point x="215" y="228"/>
      <point x="197" y="224"/>
      <point x="180" y="224" type="curve" smooth="yes"/>
      <point x="149" y="224"/>
      <point x="134" y="240"/>
      <point x="134" y="272" type="curve"/>
      <point x="134" y="304"/>
      <point x="149" y="321"/>
      <point x="178" y="321" type="curve"/>
      <point x="217" y="321"/>
      <point x="224" y="292"/>
      <point x="224" y="242" type="curve"/>
      <point x="224" y="142"/>
      <point x="186" y="106"/>
      <point x="51" y="56" type="curve"/>
      <point x="51" y="44" type="line"/>
      <point x="129" y="-7" type="line"/>
      <point x="135" y="-7" type="line"/>
      <point x="262" y="49"/>
      <point x="336" y="139"/>
      <point x="336" y="243" type="curve"/>
      <point x="336" y="338"/>
      <point x="278" y="396"/>
      <point x="181" y="396" type="curve"/>
    </contour>
  </outline>
</glyph>
<glyph name="nine.tosf" format="1">
  <advance width="475"/>
  <outline>
    <contour>
      <point x="93" y="518"/>
      <point x="24" y="420"/>
      <point x="24" y="317" type="curve"/>
      <point x="24" y="223"/>
      <point x="82" y="140"/>
      <point x="191" y="140" type="curve" smooth="yes"/>
      <point x="219" y="140"/>
      <point x="249" y="149"/>
      <point x="274" y="161" type="curve"/>
      <point x="302" y="129" type="line"/>
      <point x="322" y="278" type="line"/>
      <point x="293" y="261"/>
      <point x="265" y="251"/>
      <point x="238" y="251" type="curve" smooth="yes"/>
      <point x="190" y="251"/>
      <point x="167" y="279"/>
      <point x="167" y="332" type="curve"/>
      <point x="167" y="387"/>
      <point x="191" y="416"/>
      <point x="236" y="416" type="curve"/>
      <point x="294" y="416"/>
      <point x="308" y="370"/>
      <point x="308" y="288" type="curve"/>
      <point x="308" y="135"/>
      <point x="250" y="72"/>
      <point x="62" y="-3" type="curve"/>
      <point x="62" y="-19" type="line"/>
      <point x="161" y="-89" type="line"/>
      <point x="169" y="-89" type="line"/>
      <point x="348" y="-5"/>
      <point x="451" y="131"/>
      <point x="451" y="291" type="curve"/>
      <point x="451" y="432"/>
      <point x="372" y="518"/>
      <point x="240" y="518" type="curve"/>
    </contour>
  </outline>
</glyph>
<glyph name="o.sups" format="1">
  <advance width="351"/>
  <outline>
    <contour>
      <point x="74" y="653"/>
      <point x="19" y="594"/>
      <point x="19" y="480" type="curve" smooth="yes"/>
      <point x="19" y="374"/>
      <point x="70" y="319"/>
      <point x="169" y="319" type="curve" smooth="yes"/>
      <point x="276" y="319"/>
      <point x="331" y="378"/>
      <point x="331" y="493" type="curve" smooth="yes"/>
      <point x="331" y="598"/>
      <point x="280" y="653"/>
      <point x="181" y="653" type="curve" smooth="yes"/>
    </contour>
    <contour>
      <point x="209" y="573"/>
      <point x="222" y="551"/>
      <point x="222" y="479" type="curve" smooth="yes"/>
      <point x="222" y="416"/>
      <point x="210" y="396"/>
      <point x="177" y="396" type="curve" smooth="yes"/>
      <point x="141" y="396"/>
      <point x="130" y="419"/>
      <point x="130" y="494" type="curve" smooth="yes"/>
      <point x="130" y="554"/>
      <point x="141" y="573"/>
      <point x="174" y="573" type="curve" smooth="yes"/>
    </contour>
    <contour>
      <point x="182" y="319" type="move" name="top"/>
    </contour>
  </outline>
</glyph>
<glyph name="one.sinf" format="1">
  <advance width="284"/>
  <outline>
    <contour>
      <point x="7" y="226" type="line"/>
      <point x="7" y="131" type="line"/>
      <point x="15" y="125" type="line"/>
      <point x="94" y="140" type="line"/>
      <point x="94" y="7" type="line"/>
      <point x="90" y="-120" type="line"/>
      <point x="215" y="-120" type="line"/>
      <point x="210" y="19" type="line"/>
      <point x="216" y="262" type="line"/>
      <point x="198" y="274" type="line"/>
    </contour>
  </outline>
</glyph>
<glyph name="seven.tf" format="1">
  <advance width="475"/>
  <outline>
    <contour>
      <point x="23" y="458" type="line"/>
      <point x="31" y="445" type="line"/>
      <point x="132" y="455" type="line"/>
      <point x="285" y="455" type="line"/>
      <point x="78" y="48" type="line"/>
      <point x="88" y="24" type="line"/>
      <point x="215" y="-12" type="line"/>
      <point x="279" y="152" type="line"/>
      <point x="439" y="472" type="line"/>
      <point x="439" y="588" type="line"/>
      <point x="385" y="586" type="line"/>
      <point x="158" y="586" type="line"/>
      <point x="33" y="590" type="line"/>
    </contour>
  </outline>
</glyph>
<glyph name="six.sinf" format="1">
  <advance width="356"/>
  <outline>
    <contour>
      <point x="222" y="276" type="line"/>
      <point x="96" y="219"/>
      <point x="22" y="129"/>
      <point x="22" y="25" type="curve"/>
      <point x="22" y="-69"/>
      <point x="80" y="-127"/>
      <point x="177" y="-127" type="curve"/>
      <point x="285" y="-127"/>
      <point x="334" y="-59"/>
      <point x="334" y="8" type="curve"/>
      <point x="334" y="69"/>
      <point x="293" y="126"/>
      <point x="214" y="126" type="curve" smooth="yes"/>
      <point x="196" y="126"/>
      <point x="177" y="122"/>
      <point x="160" y="115" type="curve"/>
      <point x="139" y="140" type="line"/>
      <point x="124" y="31" type="line"/>
      <point x="143" y="40"/>
      <point x="160" y="45"/>
      <point x="177" y="45" type="curve" smooth="yes"/>
      <point x="208" y="45"/>
      <point x="223" y="29"/>
      <point x="223" y="-3" type="curve"/>
      <point x="223" y="-36"/>
      <point x="208" y="-53"/>
      <point x="179" y="-53" type="curve"/>
      <point x="141" y="-53"/>
      <point x="134" y="-24"/>
      <point x="134" y="26" type="curve"/>
      <point x="134" y="127"/>
      <point x="172" y="162"/>
      <point x="307" y="213" type="curve"/>
      <point x="307" y="224" type="line"/>
      <point x="228" y="276" type="line"/>
    </contour>
  </outline>
</glyph>
<glyph name="six.tosf" format="1">
  <advance width="475"/>
  <outline>
    <contour>
      <point x="305" y="597" type="line"/>
      <point x="126" y="513"/>
      <point x="23" y="377"/>
      <point x="23" y="217" type="curve"/>
      <point x="23" y="76"/>
      <point x="102" y="-11"/>
      <point x="234" y="-11" type="curve"/>
      <point x="382" y="-11"/>
      <point x="450" y="88"/>
      <point x="450" y="191" type="curve"/>
      <point x="450" y="284"/>
      <point x="392" y="367"/>
      <point x="283" y="367" type="curve" smooth="yes"/>
      <point x="255" y="367"/>
      <point x="225" y="359"/>
      <point x="201" y="347" type="curve"/>
      <point x="173" y="379" type="line"/>
      <point x="152" y="229" type="line"/>
      <point x="181" y="247"/>
      <point x="210" y="257"/>
      <point x="237" y="257" type="curve" smooth="yes"/>
      <point x="285" y="257"/>
      <point x="308" y="229"/>
      <point x="308" y="176" type="curve"/>
      <point x="308" y="121"/>
      <point x="284" y="92"/>
      <point x="238" y="92" type="curve"/>
      <point x="180" y="92"/>
      <point x="167" y="138"/>
      <point x="167" y="219" type="curve"/>
      <point x="167" y="373"/>
      <point x="224" y="436"/>
      <point x="412" y="511" type="curve"/>
      <point x="412" y="527" type="line"/>
      <point x="313" y="597" type="line"/>
    </contour>
  </outline>
</glyph>
<glyph name="three.sinf" format="1">
  <advance width="328"/>
  <outline>
    <contour>
      <point x="109" y="275"/>
      <point x="60" y="262"/>
      <point x="18" y="238" type="curve"/>
      <point x="37" y="158" type="line"/>
      <point x="50" y="158" type="line"/>
      <point x="80" y="172"/>
      <point x="104" y="181"/>
      <point x="128" y="181" type="curve" smooth="yes"/>
      <point x="153" y="181"/>
      <point x="165" y="173"/>
      <point x="165" y="155" type="curve" smooth="yes"/>
      <point x="165" y="131"/>
      <point x="141" y="117"/>
      <point x="111" y="116" type="curve" smooth="yes"/>
      <point x="79" y="115" type="line"/>
      <point x="78" y="35" type="line"/>
      <point x="84" y="28" type="line"/>
      <point x="140" y="28" type="line"/>
      <point x="167" y="27"/>
      <point x="181" y="17"/>
      <point x="181" y="-2" type="curve" smooth="yes"/>
      <point x="181" y="-26"/>
      <point x="158" y="-38"/>
      <point x="114" y="-38" type="curve" smooth="yes"/>
      <point x="89" y="-38"/>
      <point x="63" y="-34"/>
      <point x="33" y="-26" type="curve"/>
      <point x="24" y="-33" type="line"/>
      <point x="32" y="-119" type="line"/>
      <point x="56" y="-124"/>
      <point x="86" y="-127"/>
      <point x="112" y="-127" type="curve" smooth="yes"/>
      <point x="225" y="-127"/>
      <point x="300" y="-79"/>
      <point x="300" y="-6" type="curve" smooth="yes"/>
      <point x="300" y="40"/>
      <point x="277" y="70"/>
      <point x="230" y="84" type="curve"/>
      <point x="230" y="88" type="line"/>
      <point x="277" y="113"/>
      <point x="291" y="150"/>
      <point x="291" y="179" type="curve" smooth="yes"/>
      <point x="291" y="237"/>
      <point x="237" y="275"/>
      <point x="155" y="275" type="curve" smooth="yes"/>
    </contour>
  </outline>
</glyph>
<glyph name="three.tf" format="1">
  <advance width="475"/>
  <outline>
    <contour>
      <point x="157" y="597"/>
      <point x="89" y="578"/>
      <point x="29" y="540" type="curve"/>
      <point x="53" y="428" type="line"/>
      <point x="70" y="428" type="line"/>
      <point x="114" y="453"/>
      <point x="151" y="468"/>
      <point x="189" y="468" type="curve" smooth="yes"/>
      <point x="230" y="468"/>
      <point x="252" y="453"/>
      <point x="252" y="422" type="curve" smooth="yes"/>
      <point x="252" y="380"/>
      <point x="208" y="354"/>
      <point x="160" y="353" type="curve" smooth="yes"/>
      <point x="115" y="351" type="line"/>
      <point x="112" y="242" type="line"/>
      <point x="120" y="232" type="line"/>
      <point x="197" y="232" type="line"/>
      <point x="250" y="231"/>
      <point x="276" y="213"/>
      <point x="276" y="178" type="curve" smooth="yes"/>
      <point x="276" y="135"/>
      <point x="236" y="111"/>
      <point x="165" y="111" type="curve" smooth="yes"/>
      <point x="127" y="111"/>
      <point x="89" y="118"/>
      <point x="47" y="131" type="curve"/>
      <point x="36" y="121" type="line"/>
      <point x="46" y="1" type="line"/>
      <point x="81" y="-5"/>
      <point x="124" y="-9"/>
      <point x="161" y="-9" type="curve" smooth="yes"/>
      <point x="321" y="-9"/>
      <point x="428" y="65"/>
      <point x="428" y="176" type="curve" smooth="yes"/>
      <point x="428" y="244"/>
      <point x="392" y="288"/>
      <point x="319" y="310" type="curve"/>
      <point x="319" y="315" type="line"/>
      <point x="390" y="353"/>
      <point x="414" y="410"/>
      <point x="414" y="455" type="curve" smooth="yes"/>
      <point x="414" y="540"/>
      <point x="337" y="597"/>
      <point x="223" y="597" type="curve" smooth="yes"/>
    </contour>
  </outline>
</glyph>
<glyph name="two.sinf" format="1">
  <advance width="367"/>
  <outline>
    <contour>
      <point x="135" y="274"/>
      <point x="82" y="255"/>
      <point x="29" y="223" type="curve"/>
      <point x="50" y="132" type="line"/>
      <point x="63" y="132" type="line"/>
      <point x="93" y="159"/>
      <point x="130" y="175"/>
      <point x="156" y="175" type="curve" smooth="yes"/>
      <point x="179" y="175"/>
      <point x="190" y="164"/>
      <point x="190" y="148" type="curve" smooth="yes"/>
      <point x="190" y="123"/>
      <point x="163" y="93"/>
      <point x="123" y="50" type="curve" smooth="yes"/>
      <point x="31" y="-46" type="line"/>
      <point x="31" y="-117" type="line"/>
      <point x="37" y="-122" type="line"/>
      <point x="63" y="-120" type="line"/>
      <point x="231" y="-120" type="line"/>
      <point x="331" y="-125" type="line"/>
      <point x="344" y="-30" type="line"/>
      <point x="338" y="-22" type="line"/>
      <point x="269" y="-28" type="line"/>
      <point x="192" y="-28" type="line"/>
      <point x="190" y="-25" type="line"/>
      <point x="235" y="29" type="line" smooth="yes"/>
      <point x="291" y="96"/>
      <point x="314" y="138"/>
      <point x="314" y="177" type="curve" smooth="yes"/>
      <point x="314" y="240"/>
      <point x="258" y="274"/>
      <point x="188" y="274" type="curve" smooth="yes"/>
    </contour>
  </outline>
</glyph>
<glyph name="two.tf" format="1">
  <advance width="475"/>
  <outline>
    <contour>
      <point x="171" y="595"/>
      <point x="99" y="565"/>
      <point x="29" y="515" type="curve"/>
      <point x="56" y="392" type="line"/>
      <point x="73" y="392" type="line"/>
      <point x="114" y="434"/>
      <point x="164" y="460"/>
      <point x="202" y="460" type="curve" smooth="yes"/>
      <point x="236" y="460"/>
      <point x="253" y="439"/>
      <point x="253" y="412" type="curve" smooth="yes"/>
      <point x="253" y="372"/>
      <point x="215" y="324"/>
      <point x="159" y="255" type="curve" smooth="yes"/>
      <point x="30" y="101" type="line"/>
      <point x="30" y="3" type="line"/>
      <point x="38" y="-3" type="line"/>
      <point x="75" y="0" type="line"/>
      <point x="306" y="0" type="line"/>
      <point x="437" y="-7" type="line"/>
      <point x="455" y="121" type="line"/>
      <point x="447" y="133" type="line"/>
      <point x="353" y="125" type="line"/>
      <point x="237" y="125" type="line"/>
      <point x="234" y="129" type="line"/>
      <point x="302" y="224" type="line" smooth="yes"/>
      <point x="378" y="326"/>
      <point x="411" y="391"/>
      <point x="411" y="451" type="curve" smooth="yes"/>
      <point x="411" y="543"/>
      <point x="337" y="595"/>
      <point x="243" y="595" type="curve" smooth="yes"/>
    </contour>
  </outline>
</glyph>
<glyph name="two.tosf" format="1">
  <advance width="475"/>
  <outline>
    <contour>
      <point x="176" y="516"/>
      <point x="103" y="491"/>
      <point x="34" y="449" type="curve"/>
      <point x="61" y="326" type="line"/>
      <point x="78" y="326" type="line"/>
      <point x="118" y="360"/>
      <point x="167" y="381"/>
      <point x="206" y="381" type="curve" smooth="yes"/>
      <point x="238" y="381"/>
      <point x="253" y="367"/>
      <point x="253" y="346" type="curve" smooth="yes"/>
      <point x="253" y="316"/>
      <point x="222" y="278"/>
      <point x="165" y="223" type="curve" smooth="yes"/>
      <point x="35" y="100" type="line"/>
      <point x="35" y="3" type="line"/>
      <point x="42" y="-3" type="line"/>
      <point x="79" y="0" type="line"/>
      <point x="305" y="0" type="line"/>
      <point x="435" y="-7" type="line"/>
      <point x="454" y="120" type="line"/>
      <point x="445" y="130" type="line"/>
      <point x="352" y="121" type="line"/>
      <point x="243" y="121" type="line" smooth="yes"/>
      <point x="241" y="125" type="line"/>
      <point x="302" y="192" type="line" smooth="yes"/>
      <point x="381" y="276"/>
      <point x="411" y="335"/>
      <point x="411" y="388" type="curve" smooth="yes"/>
      <point x="411" y="470"/>
      <point x="339" y="516"/>
      <point x="244" y="516" type="curve" smooth="yes"/>
    </contour>
  </outline>
</glyph>
<glyph name="uni0066006A" format="1">
  <advance width="627"/>
  <outline>
    <contour>
      <point x="169" y="705"/>
      <point x="95" y="637"/>
      <point x="95" y="490" type="curve"/>
      <point x="96" y="464" type="line"/>
      <point x="29" y="464" type="line"/>
      <point x="22" y="378" type="line"/>
      <point x="27" y="370" type="line"/>
      <point x="97" y="370" type="line"/>
      <point x="99" y="192" type="line"/>
      <point x="91" y="0" type="line"/>
      <point x="249" y="0" type="line"/>
      <point x="242" y="207" type="line"/>
      <point x="245" y="370" type="line"/>
      <point x="416" y="370" type="line"/>
      <point x="420" y="191" type="line"/>
      <point x="420" y="26" type="line" smooth="yes"/>
      <point x="420" y="-41"/>
      <point x="397" y="-82"/>
      <point x="342" y="-112" type="curve"/>
      <point x="342" y="-126" type="line"/>
      <point x="396" y="-196" type="line"/>
      <point x="517" y="-144"/>
      <point x="570" y="-76"/>
      <point x="570" y="30" type="curve"/>
      <point x="563" y="207" type="line"/>
      <point x="572" y="468" type="line"/>
      <point x="562" y="475" type="line"/>
      <point x="479" y="464" type="line"/>
      <point x="246" y="464" type="line"/>
      <point x="247" y="525" type="line" smooth="yes"/>
      <point x="248" y="573"/>
      <point x="268" y="595"/>
      <point x="312" y="595" type="curve" smooth="yes"/>
      <point x="343" y="595"/>
      <point x="381" y="584"/>
      <point x="434" y="560" type="curve"/>
      <point x="449" y="567" type="line"/>
      <point x="467" y="689" type="line"/>
      <point x="413" y="700"/>
      <point x="375" y="705"/>
      <point x="329" y="705" type="curve" smooth="yes"/>
    </contour>
  </outline>
</glyph>
<glyph name="z.sups" format="1">
  <advance width="308"/>
  <outline>
    <contour>
      <point x="19" y="578" type="line"/>
      <point x="25" y="570" type="line"/>
      <point x="85" y="574" type="line"/>
      <point x="159" y="574" type="line"/>
      <point x="20" y="393" type="line"/>
      <point x="20" y="324" type="line"/>
      <point x="73" y="327" type="line"/>
      <point x="192" y="327" type="line"/>
      <point x="282" y="325" type="line"/>
      <point x="290" y="395" type="line"/>
      <point x="283" y="403" type="line"/>
      <point x="223" y="398" type="line"/>
      <point x="145" y="398" type="line"/>
      <point x="282" y="577" type="line"/>
      <point x="282" y="646" type="line"/>
      <point x="240" y="645" type="line"/>
      <point x="102" y="645" type="line"/>
      <point x="27" y="647" type="line"/>
    </contour>
    <contour>
      <point x="157" y="319" type="move" name="top"/>
    </contour>
  </outline>
</glyph>
<glyph name="zero.sinf" format="1">
  <advance width="375"/>
  <outline>
    <contour>
      <point x="87" y="275"/>
      <point x="26" y="200"/>
      <point x="26" y="65" type="curve" smooth="yes"/>
      <point x="26" y="-59"/>
      <point x="81" y="-127"/>
      <point x="180" y="-127" type="curve" smooth="yes"/>
      <point x="288" y="-127"/>
      <point x="348" y="-53"/>
      <point x="348" y="82" type="curve" smooth="yes"/>
      <point x="348" y="207"/>
      <point x="294" y="275"/>
      <point x="196" y="275" type="curve" smooth="yes"/>
    </contour>
    <contour>
      <point x="232" y="165"/>
      <point x="252" y="136"/>
      <point x="252" y="68" type="curve" smooth="yes"/>
      <point x="252" y="5"/>
      <point x="233" y="-25"/>
      <point x="187" y="-25" type="curve" smooth="yes"/>
      <point x="141" y="-25"/>
      <point x="123" y="6"/>
      <point x="123" y="74" type="curve" smooth="yes"/>
      <point x="123" y="138"/>
      <point x="141" y="165"/>
      <point x="186" y="165" type="curve" smooth="yes"/>
    </contour>
  </outline>
</glyph>
<glyph name="zero.tosf" format="1">
  <advance width="475"/>
  <outline>
    <contour>
      <point x="107" y="518"/>
      <point x="25" y="416"/>
      <point x="25" y="243" type="curve" smooth="yes"/>
      <point x="25" y="82"/>
      <point x="100" y="-10"/>
      <point x="228" y="-10" type="curve" smooth="yes"/>
      <point x="368" y="-10"/>
      <point x="449" y="90"/>
      <point x="449" y="264" type="curve" smooth="yes"/>
      <point x="449" y="426"/>
      <point x="376" y="518"/>
      <point x="248" y="518" type="curve" smooth="yes"/>
    </contour>
    <contour>
      <point x="299" y="370"/>
      <point x="329" y="333"/>
      <point x="329" y="246" type="curve" smooth="yes"/>
      <point x="329" y="165"/>
      <point x="300" y="129"/>
      <point x="238" y="129" type="curve" smooth="yes"/>
      <point x="175" y="129"/>
      <point x="148" y="168"/>
      <point x="148" y="253" type="curve" smooth="yes"/>
      <point x="148" y="336"/>
      <point x="175" y="370"/>
      <point x="237" y="370" type="curve" smooth="yes"/>
    </contour>
  </outline>
</glyph>
